M48
;DRILL file {KiCad (5.0.2)-1} date 4/26/2019 9:23:55 PM
;FORMAT={-:-/ absolute / inch / decimal}
FMAT,2
INCH,TZ
T1C0.0157
T2C0.0866
%
G90
G05
T1
X1.4975Y-4.375
X1.5166Y-4.3291
X1.5166Y-4.4209
X1.5625Y-4.31
X1.5625Y-4.44
X1.6084Y-4.3291
X1.6084Y-4.4209
X1.6275Y-4.375
X5.1225Y-4.375
X5.1416Y-4.3291
X5.1416Y-4.4209
X5.1875Y-4.31
X5.1875Y-4.44
X5.2334Y-4.3291
X5.2334Y-4.4209
X5.2525Y-4.375
X1.4975Y-1.4375
X1.5166Y-1.3916
X1.5166Y-1.4834
X1.5625Y-1.3725
X1.5625Y-1.5025
X1.6084Y-1.3916
X1.6084Y-1.4834
X1.6275Y-1.4375
X5.1225Y-1.4375
X5.1416Y-1.3916
X5.1416Y-1.4834
X5.1875Y-1.3725
X5.1875Y-1.5025
X5.2334Y-1.3916
X5.2334Y-1.4834
X5.2525Y-1.4375
T2
X1.5625Y-4.375
X5.1875Y-4.375
X1.5625Y-1.4375
X5.1875Y-1.4375
T0
M30
