G04 #@! TF.GenerationSoftware,KiCad,Pcbnew,(5.0.2)-1*
G04 #@! TF.CreationDate,2019-04-26T21:23:54-07:00*
G04 #@! TF.ProjectId,Summit Bottom,53756d6d-6974-4204-926f-74746f6d2e6b,rev?*
G04 #@! TF.SameCoordinates,Original*
G04 #@! TF.FileFunction,Soldermask,Top*
G04 #@! TF.FilePolarity,Negative*
%FSLAX46Y46*%
G04 Gerber Fmt 4.6, Leading zero omitted, Abs format (unit mm)*
G04 Created by KiCad (PCBNEW (5.0.2)-1) date 4/26/2019 9:23:54 PM*
%MOMM*%
%LPD*%
G01*
G04 APERTURE LIST*
%ADD10C,0.100000*%
G04 APERTURE END LIST*
D10*
G36*
X39995945Y-108891254D02*
X40344093Y-108960504D01*
X40753749Y-109130189D01*
X41122429Y-109376534D01*
X41435966Y-109690071D01*
X41682311Y-110058751D01*
X41851996Y-110468407D01*
X41902836Y-110724000D01*
X41938500Y-110903294D01*
X41938500Y-111346706D01*
X41921246Y-111433445D01*
X41851996Y-111781593D01*
X41682311Y-112191249D01*
X41435966Y-112559929D01*
X41122429Y-112873466D01*
X40753749Y-113119811D01*
X40344093Y-113289496D01*
X39995945Y-113358746D01*
X39909206Y-113376000D01*
X39465794Y-113376000D01*
X39379055Y-113358746D01*
X39030907Y-113289496D01*
X38621251Y-113119811D01*
X38252571Y-112873466D01*
X37939034Y-112559929D01*
X37692689Y-112191249D01*
X37523004Y-111781593D01*
X37453754Y-111433445D01*
X37436500Y-111346706D01*
X37436500Y-110903294D01*
X37472164Y-110724000D01*
X37523004Y-110468407D01*
X37692689Y-110058751D01*
X37939034Y-109690071D01*
X38252571Y-109376534D01*
X38621251Y-109130189D01*
X39030907Y-108960504D01*
X39379055Y-108891254D01*
X39465794Y-108874000D01*
X39909206Y-108874000D01*
X39995945Y-108891254D01*
X39995945Y-108891254D01*
G37*
G36*
X132070945Y-108891254D02*
X132419093Y-108960504D01*
X132828749Y-109130189D01*
X133197429Y-109376534D01*
X133510966Y-109690071D01*
X133757311Y-110058751D01*
X133926996Y-110468407D01*
X133977836Y-110724000D01*
X134013500Y-110903294D01*
X134013500Y-111346706D01*
X133996246Y-111433445D01*
X133926996Y-111781593D01*
X133757311Y-112191249D01*
X133510966Y-112559929D01*
X133197429Y-112873466D01*
X132828749Y-113119811D01*
X132419093Y-113289496D01*
X132070945Y-113358746D01*
X131984206Y-113376000D01*
X131540794Y-113376000D01*
X131454055Y-113358746D01*
X131105907Y-113289496D01*
X130696251Y-113119811D01*
X130327571Y-112873466D01*
X130014034Y-112559929D01*
X129767689Y-112191249D01*
X129598004Y-111781593D01*
X129528754Y-111433445D01*
X129511500Y-111346706D01*
X129511500Y-110903294D01*
X129547164Y-110724000D01*
X129598004Y-110468407D01*
X129767689Y-110058751D01*
X130014034Y-109690071D01*
X130327571Y-109376534D01*
X130696251Y-109130189D01*
X131105907Y-108960504D01*
X131454055Y-108891254D01*
X131540794Y-108874000D01*
X131984206Y-108874000D01*
X132070945Y-108891254D01*
X132070945Y-108891254D01*
G37*
G36*
X132070945Y-34278754D02*
X132419093Y-34348004D01*
X132828749Y-34517689D01*
X133197429Y-34764034D01*
X133510966Y-35077571D01*
X133757311Y-35446251D01*
X133926996Y-35855907D01*
X133977836Y-36111500D01*
X134013500Y-36290794D01*
X134013500Y-36734206D01*
X133996246Y-36820945D01*
X133926996Y-37169093D01*
X133757311Y-37578749D01*
X133510966Y-37947429D01*
X133197429Y-38260966D01*
X132828749Y-38507311D01*
X132419093Y-38676996D01*
X132070945Y-38746246D01*
X131984206Y-38763500D01*
X131540794Y-38763500D01*
X131454055Y-38746246D01*
X131105907Y-38676996D01*
X130696251Y-38507311D01*
X130327571Y-38260966D01*
X130014034Y-37947429D01*
X129767689Y-37578749D01*
X129598004Y-37169093D01*
X129528754Y-36820945D01*
X129511500Y-36734206D01*
X129511500Y-36290794D01*
X129547164Y-36111500D01*
X129598004Y-35855907D01*
X129767689Y-35446251D01*
X130014034Y-35077571D01*
X130327571Y-34764034D01*
X130696251Y-34517689D01*
X131105907Y-34348004D01*
X131454055Y-34278754D01*
X131540794Y-34261500D01*
X131984206Y-34261500D01*
X132070945Y-34278754D01*
X132070945Y-34278754D01*
G37*
G36*
X39995945Y-34278754D02*
X40344093Y-34348004D01*
X40753749Y-34517689D01*
X41122429Y-34764034D01*
X41435966Y-35077571D01*
X41682311Y-35446251D01*
X41851996Y-35855907D01*
X41902836Y-36111500D01*
X41938500Y-36290794D01*
X41938500Y-36734206D01*
X41921246Y-36820945D01*
X41851996Y-37169093D01*
X41682311Y-37578749D01*
X41435966Y-37947429D01*
X41122429Y-38260966D01*
X40753749Y-38507311D01*
X40344093Y-38676996D01*
X39995945Y-38746246D01*
X39909206Y-38763500D01*
X39465794Y-38763500D01*
X39379055Y-38746246D01*
X39030907Y-38676996D01*
X38621251Y-38507311D01*
X38252571Y-38260966D01*
X37939034Y-37947429D01*
X37692689Y-37578749D01*
X37523004Y-37169093D01*
X37453754Y-36820945D01*
X37436500Y-36734206D01*
X37436500Y-36290794D01*
X37472164Y-36111500D01*
X37523004Y-35855907D01*
X37692689Y-35446251D01*
X37939034Y-35077571D01*
X38252571Y-34764034D01*
X38621251Y-34517689D01*
X39030907Y-34348004D01*
X39379055Y-34278754D01*
X39465794Y-34261500D01*
X39909206Y-34261500D01*
X39995945Y-34278754D01*
X39995945Y-34278754D01*
G37*
M02*
