M48
;DRILL file {KiCad (5.0.2)-1} date 4/26/2019 9:04:55 PM
;FORMAT={-:-/ absolute / inch / decimal}
FMAT,2
INCH,TZ
T1C0.0157
T2C0.0394
T3C0.0866
%
G90
G05
T1
X1.4975Y-4.375
X1.5166Y-4.3291
X1.5166Y-4.4209
X1.5625Y-4.31
X1.5625Y-4.44
X1.6084Y-4.3291
X1.6084Y-4.4209
X1.6275Y-4.375
X5.1225Y-4.375
X5.1416Y-4.3291
X5.1416Y-4.4209
X5.1875Y-4.31
X5.1875Y-4.44
X5.2334Y-4.3291
X5.2334Y-4.4209
X5.2525Y-4.375
X5.1225Y-1.4375
X5.1416Y-1.3916
X5.1416Y-1.4834
X5.1875Y-1.3725
X5.1875Y-1.5025
X5.2334Y-1.3916
X5.2334Y-1.4834
X5.2525Y-1.4375
X1.4975Y-1.4375
X1.5166Y-1.3916
X1.5166Y-1.4834
X1.5625Y-1.3725
X1.5625Y-1.5025
X1.6084Y-1.3916
X1.6084Y-1.4834
X1.6275Y-1.4375
T3
X1.5625Y-4.375
X5.1875Y-4.375
X5.1875Y-1.4375
X1.5625Y-1.4375
T2
X1.6191Y-3.4941G85X1.6191Y-4.0059
G05
X1.6191Y-3.4941G85X2.1309Y-3.4941
G05
X1.6191Y-4.0059G85X2.1309Y-4.0059
G05
X2.1309Y-3.4941G85X2.1309Y-4.0059
G05
X3.1191Y-1.6191G85X3.1191Y-2.1309
G05
X3.1191Y-1.6191G85X3.6309Y-1.6191
G05
X3.1191Y-2.1309G85X3.6309Y-2.1309
G05
X3.6309Y-1.6191G85X3.6309Y-2.1309
G05
X4.6191Y-1.6191G85X4.6191Y-2.1309
G05
X4.6191Y-1.6191G85X5.1309Y-1.6191
G05
X4.6191Y-2.1309G85X5.1309Y-2.1309
G05
X5.1309Y-1.6191G85X5.1309Y-2.1309
G05
X3.8691Y-3.4941G85X3.8691Y-4.0059
G05
X4.3809Y-3.4941G85X3.8691Y-3.4941
G05
X4.3809Y-4.0059G85X3.8691Y-4.0059
G05
X4.3809Y-3.4941G85X4.3809Y-4.0059
G05
X2.3691Y-2.5566G85X2.3691Y-3.0684
G05
X2.3691Y-2.5566G85X2.8809Y-2.5566
G05
X2.3691Y-3.0684G85X2.8809Y-3.0684
G05
X2.8809Y-2.5566G85X2.8809Y-3.0684
G05
X3.8691Y-2.5566G85X3.8691Y-3.0684
G05
X3.8691Y-2.5566G85X4.3809Y-2.5566
G05
X3.8691Y-3.0684G85X4.3809Y-3.0684
G05
X4.3809Y-2.5566G85X4.3809Y-3.0684
G05
X4.6191Y-3.4941G85X4.6191Y-4.0059
G05
X4.6191Y-3.4941G85X5.1309Y-3.4941
G05
X4.6191Y-4.0059G85X5.1309Y-4.0059
G05
X5.1309Y-3.4941G85X5.1309Y-4.0059
G05
X3.1191Y-3.4941G85X3.1191Y-4.0059
G05
X3.1191Y-3.4941G85X3.6309Y-3.4941
G05
X3.1191Y-4.0059G85X3.6309Y-4.0059
G05
X3.6309Y-3.4941G85X3.6309Y-4.0059
G05
X1.6191Y-1.6191G85X1.6191Y-2.1309
G05
X1.6191Y-1.6191G85X2.1309Y-1.6191
G05
X1.6191Y-2.1309G85X2.1309Y-2.1309
G05
X2.1309Y-1.6191G85X2.1309Y-2.1309
G05
X2.3691Y-3.4941G85X2.3691Y-4.0059
G05
X2.3691Y-3.4941G85X2.8809Y-3.4941
G05
X2.3691Y-4.0059G85X2.8809Y-4.0059
G05
X2.8809Y-3.4941G85X2.8809Y-4.0059
G05
X3.1191Y-2.5566G85X3.1191Y-3.0684
G05
X3.1191Y-2.5566G85X3.6309Y-2.5566
G05
X3.1191Y-3.0684G85X3.6309Y-3.0684
G05
X3.6309Y-2.5566G85X3.6309Y-3.0684
G05
X4.6191Y-2.5566G85X4.6191Y-3.0684
G05
X4.6191Y-2.5566G85X5.1309Y-2.5566
G05
X4.6191Y-3.0684G85X5.1309Y-3.0684
G05
X5.1309Y-2.5566G85X5.1309Y-3.0684
G05
X1.6191Y-2.5566G85X1.6191Y-3.0684
G05
X1.6191Y-2.5566G85X2.1309Y-2.5566
G05
X1.6191Y-3.0684G85X2.1309Y-3.0684
G05
X2.1309Y-2.5566G85X2.1309Y-3.0684
G05
X2.3691Y-1.6191G85X2.3691Y-2.1309
G05
X2.3691Y-1.6191G85X2.8809Y-1.6191
G05
X2.3691Y-2.1309G85X2.8809Y-2.1309
G05
X2.8809Y-1.6191G85X2.8809Y-2.1309
G05
X3.8691Y-1.6191G85X3.8691Y-2.1309
G05
X3.8691Y-1.6191G85X4.3809Y-1.6191
G05
X3.8691Y-2.1309G85X4.3809Y-2.1309
G05
X4.3809Y-1.6191G85X4.3809Y-2.1309
G05
T0
M30
