G04 #@! TF.GenerationSoftware,KiCad,Pcbnew,(5.0.2)-1*
G04 #@! TF.CreationDate,2019-04-26T21:04:54-07:00*
G04 #@! TF.ProjectId,Summit Top,53756d6d-6974-4205-946f-702e6b696361,rev?*
G04 #@! TF.SameCoordinates,Original*
G04 #@! TF.FileFunction,Copper,L2,Bot*
G04 #@! TF.FilePolarity,Positive*
%FSLAX46Y46*%
G04 Gerber Fmt 4.6, Leading zero omitted, Abs format (unit mm)*
G04 Created by KiCad (PCBNEW (5.0.2)-1) date 4/26/2019 9:04:54 PM*
%MOMM*%
%LPD*%
G01*
G04 APERTURE LIST*
G04 #@! TA.AperFunction,Conductor*
%ADD10C,0.100000*%
G04 #@! TD*
G04 #@! TA.AperFunction,ViaPad*
%ADD11C,3.000000*%
G04 #@! TD*
G04 #@! TA.AperFunction,ComponentPad*
%ADD12C,4.400000*%
G04 #@! TD*
G04 #@! TA.AperFunction,ComponentPad*
%ADD13C,0.700000*%
G04 #@! TD*
G04 APERTURE END LIST*
D10*
G04 #@! TO.N,*
G04 #@! TO.C,REF\002A\002A*
G36*
X54723018Y-52629815D02*
X54820091Y-52644215D01*
X54915285Y-52668060D01*
X55007684Y-52701120D01*
X55096397Y-52743079D01*
X55180571Y-52793530D01*
X55259394Y-52851989D01*
X55332107Y-52917893D01*
X55398011Y-52990606D01*
X55456470Y-53069429D01*
X55506921Y-53153603D01*
X55548880Y-53242316D01*
X55581940Y-53334715D01*
X55605785Y-53429909D01*
X55620185Y-53526982D01*
X55625000Y-53624999D01*
X55625000Y-54625001D01*
X55620185Y-54723018D01*
X55605785Y-54820091D01*
X55581940Y-54915285D01*
X55548880Y-55007684D01*
X55506921Y-55096397D01*
X55456470Y-55180571D01*
X55398011Y-55259394D01*
X55332107Y-55332107D01*
X55259394Y-55398011D01*
X55180571Y-55456470D01*
X55096397Y-55506921D01*
X55007684Y-55548880D01*
X54915285Y-55581940D01*
X54820091Y-55605785D01*
X54723018Y-55620185D01*
X54625001Y-55625000D01*
X40624999Y-55625000D01*
X40526982Y-55620185D01*
X40429909Y-55605785D01*
X40334715Y-55581940D01*
X40242316Y-55548880D01*
X40153603Y-55506921D01*
X40069429Y-55456470D01*
X39990606Y-55398011D01*
X39917893Y-55332107D01*
X39851989Y-55259394D01*
X39793530Y-55180571D01*
X39743079Y-55096397D01*
X39701120Y-55007684D01*
X39668060Y-54915285D01*
X39644215Y-54820091D01*
X39629815Y-54723018D01*
X39625000Y-54625001D01*
X39625000Y-53624999D01*
X39629815Y-53526982D01*
X39644215Y-53429909D01*
X39668060Y-53334715D01*
X39701120Y-53242316D01*
X39743079Y-53153603D01*
X39793530Y-53069429D01*
X39851989Y-52990606D01*
X39917893Y-52917893D01*
X39990606Y-52851989D01*
X40069429Y-52793530D01*
X40153603Y-52743079D01*
X40242316Y-52701120D01*
X40334715Y-52668060D01*
X40429909Y-52644215D01*
X40526982Y-52629815D01*
X40624999Y-52625000D01*
X54625001Y-52625000D01*
X54723018Y-52629815D01*
X54723018Y-52629815D01*
G37*
D11*
X47625000Y-54125000D03*
D10*
G36*
X54723018Y-39629815D02*
X54820091Y-39644215D01*
X54915285Y-39668060D01*
X55007684Y-39701120D01*
X55096397Y-39743079D01*
X55180571Y-39793530D01*
X55259394Y-39851989D01*
X55332107Y-39917893D01*
X55398011Y-39990606D01*
X55456470Y-40069429D01*
X55506921Y-40153603D01*
X55548880Y-40242316D01*
X55581940Y-40334715D01*
X55605785Y-40429909D01*
X55620185Y-40526982D01*
X55625000Y-40624999D01*
X55625000Y-41625001D01*
X55620185Y-41723018D01*
X55605785Y-41820091D01*
X55581940Y-41915285D01*
X55548880Y-42007684D01*
X55506921Y-42096397D01*
X55456470Y-42180571D01*
X55398011Y-42259394D01*
X55332107Y-42332107D01*
X55259394Y-42398011D01*
X55180571Y-42456470D01*
X55096397Y-42506921D01*
X55007684Y-42548880D01*
X54915285Y-42581940D01*
X54820091Y-42605785D01*
X54723018Y-42620185D01*
X54625001Y-42625000D01*
X40624999Y-42625000D01*
X40526982Y-42620185D01*
X40429909Y-42605785D01*
X40334715Y-42581940D01*
X40242316Y-42548880D01*
X40153603Y-42506921D01*
X40069429Y-42456470D01*
X39990606Y-42398011D01*
X39917893Y-42332107D01*
X39851989Y-42259394D01*
X39793530Y-42180571D01*
X39743079Y-42096397D01*
X39701120Y-42007684D01*
X39668060Y-41915285D01*
X39644215Y-41820091D01*
X39629815Y-41723018D01*
X39625000Y-41625001D01*
X39625000Y-40624999D01*
X39629815Y-40526982D01*
X39644215Y-40429909D01*
X39668060Y-40334715D01*
X39701120Y-40242316D01*
X39743079Y-40153603D01*
X39793530Y-40069429D01*
X39851989Y-39990606D01*
X39917893Y-39917893D01*
X39990606Y-39851989D01*
X40069429Y-39793530D01*
X40153603Y-39743079D01*
X40242316Y-39701120D01*
X40334715Y-39668060D01*
X40429909Y-39644215D01*
X40526982Y-39629815D01*
X40624999Y-39625000D01*
X54625001Y-39625000D01*
X54723018Y-39629815D01*
X54723018Y-39629815D01*
G37*
D11*
X47625000Y-41125000D03*
D10*
G36*
X54723018Y-39629815D02*
X54820091Y-39644215D01*
X54915285Y-39668060D01*
X55007684Y-39701120D01*
X55096397Y-39743079D01*
X55180571Y-39793530D01*
X55259394Y-39851989D01*
X55332107Y-39917893D01*
X55398011Y-39990606D01*
X55456470Y-40069429D01*
X55506921Y-40153603D01*
X55548880Y-40242316D01*
X55581940Y-40334715D01*
X55605785Y-40429909D01*
X55620185Y-40526982D01*
X55625000Y-40624999D01*
X55625000Y-54625001D01*
X55620185Y-54723018D01*
X55605785Y-54820091D01*
X55581940Y-54915285D01*
X55548880Y-55007684D01*
X55506921Y-55096397D01*
X55456470Y-55180571D01*
X55398011Y-55259394D01*
X55332107Y-55332107D01*
X55259394Y-55398011D01*
X55180571Y-55456470D01*
X55096397Y-55506921D01*
X55007684Y-55548880D01*
X54915285Y-55581940D01*
X54820091Y-55605785D01*
X54723018Y-55620185D01*
X54625001Y-55625000D01*
X53624999Y-55625000D01*
X53526982Y-55620185D01*
X53429909Y-55605785D01*
X53334715Y-55581940D01*
X53242316Y-55548880D01*
X53153603Y-55506921D01*
X53069429Y-55456470D01*
X52990606Y-55398011D01*
X52917893Y-55332107D01*
X52851989Y-55259394D01*
X52793530Y-55180571D01*
X52743079Y-55096397D01*
X52701120Y-55007684D01*
X52668060Y-54915285D01*
X52644215Y-54820091D01*
X52629815Y-54723018D01*
X52625000Y-54625001D01*
X52625000Y-40624999D01*
X52629815Y-40526982D01*
X52644215Y-40429909D01*
X52668060Y-40334715D01*
X52701120Y-40242316D01*
X52743079Y-40153603D01*
X52793530Y-40069429D01*
X52851989Y-39990606D01*
X52917893Y-39917893D01*
X52990606Y-39851989D01*
X53069429Y-39793530D01*
X53153603Y-39743079D01*
X53242316Y-39701120D01*
X53334715Y-39668060D01*
X53429909Y-39644215D01*
X53526982Y-39629815D01*
X53624999Y-39625000D01*
X54625001Y-39625000D01*
X54723018Y-39629815D01*
X54723018Y-39629815D01*
G37*
D11*
X54125000Y-47625000D03*
D10*
G36*
X41723018Y-39629815D02*
X41820091Y-39644215D01*
X41915285Y-39668060D01*
X42007684Y-39701120D01*
X42096397Y-39743079D01*
X42180571Y-39793530D01*
X42259394Y-39851989D01*
X42332107Y-39917893D01*
X42398011Y-39990606D01*
X42456470Y-40069429D01*
X42506921Y-40153603D01*
X42548880Y-40242316D01*
X42581940Y-40334715D01*
X42605785Y-40429909D01*
X42620185Y-40526982D01*
X42625000Y-40624999D01*
X42625000Y-54625001D01*
X42620185Y-54723018D01*
X42605785Y-54820091D01*
X42581940Y-54915285D01*
X42548880Y-55007684D01*
X42506921Y-55096397D01*
X42456470Y-55180571D01*
X42398011Y-55259394D01*
X42332107Y-55332107D01*
X42259394Y-55398011D01*
X42180571Y-55456470D01*
X42096397Y-55506921D01*
X42007684Y-55548880D01*
X41915285Y-55581940D01*
X41820091Y-55605785D01*
X41723018Y-55620185D01*
X41625001Y-55625000D01*
X40624999Y-55625000D01*
X40526982Y-55620185D01*
X40429909Y-55605785D01*
X40334715Y-55581940D01*
X40242316Y-55548880D01*
X40153603Y-55506921D01*
X40069429Y-55456470D01*
X39990606Y-55398011D01*
X39917893Y-55332107D01*
X39851989Y-55259394D01*
X39793530Y-55180571D01*
X39743079Y-55096397D01*
X39701120Y-55007684D01*
X39668060Y-54915285D01*
X39644215Y-54820091D01*
X39629815Y-54723018D01*
X39625000Y-54625001D01*
X39625000Y-40624999D01*
X39629815Y-40526982D01*
X39644215Y-40429909D01*
X39668060Y-40334715D01*
X39701120Y-40242316D01*
X39743079Y-40153603D01*
X39793530Y-40069429D01*
X39851989Y-39990606D01*
X39917893Y-39917893D01*
X39990606Y-39851989D01*
X40069429Y-39793530D01*
X40153603Y-39743079D01*
X40242316Y-39701120D01*
X40334715Y-39668060D01*
X40429909Y-39644215D01*
X40526982Y-39629815D01*
X40624999Y-39625000D01*
X41625001Y-39625000D01*
X41723018Y-39629815D01*
X41723018Y-39629815D01*
G37*
D11*
X41125000Y-47625000D03*
G04 #@! TD*
D10*
G04 #@! TO.N,*
G04 #@! TO.C,REF\002A\002A*
G36*
X73773018Y-52629815D02*
X73870091Y-52644215D01*
X73965285Y-52668060D01*
X74057684Y-52701120D01*
X74146397Y-52743079D01*
X74230571Y-52793530D01*
X74309394Y-52851989D01*
X74382107Y-52917893D01*
X74448011Y-52990606D01*
X74506470Y-53069429D01*
X74556921Y-53153603D01*
X74598880Y-53242316D01*
X74631940Y-53334715D01*
X74655785Y-53429909D01*
X74670185Y-53526982D01*
X74675000Y-53624999D01*
X74675000Y-54625001D01*
X74670185Y-54723018D01*
X74655785Y-54820091D01*
X74631940Y-54915285D01*
X74598880Y-55007684D01*
X74556921Y-55096397D01*
X74506470Y-55180571D01*
X74448011Y-55259394D01*
X74382107Y-55332107D01*
X74309394Y-55398011D01*
X74230571Y-55456470D01*
X74146397Y-55506921D01*
X74057684Y-55548880D01*
X73965285Y-55581940D01*
X73870091Y-55605785D01*
X73773018Y-55620185D01*
X73675001Y-55625000D01*
X59674999Y-55625000D01*
X59576982Y-55620185D01*
X59479909Y-55605785D01*
X59384715Y-55581940D01*
X59292316Y-55548880D01*
X59203603Y-55506921D01*
X59119429Y-55456470D01*
X59040606Y-55398011D01*
X58967893Y-55332107D01*
X58901989Y-55259394D01*
X58843530Y-55180571D01*
X58793079Y-55096397D01*
X58751120Y-55007684D01*
X58718060Y-54915285D01*
X58694215Y-54820091D01*
X58679815Y-54723018D01*
X58675000Y-54625001D01*
X58675000Y-53624999D01*
X58679815Y-53526982D01*
X58694215Y-53429909D01*
X58718060Y-53334715D01*
X58751120Y-53242316D01*
X58793079Y-53153603D01*
X58843530Y-53069429D01*
X58901989Y-52990606D01*
X58967893Y-52917893D01*
X59040606Y-52851989D01*
X59119429Y-52793530D01*
X59203603Y-52743079D01*
X59292316Y-52701120D01*
X59384715Y-52668060D01*
X59479909Y-52644215D01*
X59576982Y-52629815D01*
X59674999Y-52625000D01*
X73675001Y-52625000D01*
X73773018Y-52629815D01*
X73773018Y-52629815D01*
G37*
D11*
X66675000Y-54125000D03*
D10*
G36*
X73773018Y-39629815D02*
X73870091Y-39644215D01*
X73965285Y-39668060D01*
X74057684Y-39701120D01*
X74146397Y-39743079D01*
X74230571Y-39793530D01*
X74309394Y-39851989D01*
X74382107Y-39917893D01*
X74448011Y-39990606D01*
X74506470Y-40069429D01*
X74556921Y-40153603D01*
X74598880Y-40242316D01*
X74631940Y-40334715D01*
X74655785Y-40429909D01*
X74670185Y-40526982D01*
X74675000Y-40624999D01*
X74675000Y-41625001D01*
X74670185Y-41723018D01*
X74655785Y-41820091D01*
X74631940Y-41915285D01*
X74598880Y-42007684D01*
X74556921Y-42096397D01*
X74506470Y-42180571D01*
X74448011Y-42259394D01*
X74382107Y-42332107D01*
X74309394Y-42398011D01*
X74230571Y-42456470D01*
X74146397Y-42506921D01*
X74057684Y-42548880D01*
X73965285Y-42581940D01*
X73870091Y-42605785D01*
X73773018Y-42620185D01*
X73675001Y-42625000D01*
X59674999Y-42625000D01*
X59576982Y-42620185D01*
X59479909Y-42605785D01*
X59384715Y-42581940D01*
X59292316Y-42548880D01*
X59203603Y-42506921D01*
X59119429Y-42456470D01*
X59040606Y-42398011D01*
X58967893Y-42332107D01*
X58901989Y-42259394D01*
X58843530Y-42180571D01*
X58793079Y-42096397D01*
X58751120Y-42007684D01*
X58718060Y-41915285D01*
X58694215Y-41820091D01*
X58679815Y-41723018D01*
X58675000Y-41625001D01*
X58675000Y-40624999D01*
X58679815Y-40526982D01*
X58694215Y-40429909D01*
X58718060Y-40334715D01*
X58751120Y-40242316D01*
X58793079Y-40153603D01*
X58843530Y-40069429D01*
X58901989Y-39990606D01*
X58967893Y-39917893D01*
X59040606Y-39851989D01*
X59119429Y-39793530D01*
X59203603Y-39743079D01*
X59292316Y-39701120D01*
X59384715Y-39668060D01*
X59479909Y-39644215D01*
X59576982Y-39629815D01*
X59674999Y-39625000D01*
X73675001Y-39625000D01*
X73773018Y-39629815D01*
X73773018Y-39629815D01*
G37*
D11*
X66675000Y-41125000D03*
D10*
G36*
X73773018Y-39629815D02*
X73870091Y-39644215D01*
X73965285Y-39668060D01*
X74057684Y-39701120D01*
X74146397Y-39743079D01*
X74230571Y-39793530D01*
X74309394Y-39851989D01*
X74382107Y-39917893D01*
X74448011Y-39990606D01*
X74506470Y-40069429D01*
X74556921Y-40153603D01*
X74598880Y-40242316D01*
X74631940Y-40334715D01*
X74655785Y-40429909D01*
X74670185Y-40526982D01*
X74675000Y-40624999D01*
X74675000Y-54625001D01*
X74670185Y-54723018D01*
X74655785Y-54820091D01*
X74631940Y-54915285D01*
X74598880Y-55007684D01*
X74556921Y-55096397D01*
X74506470Y-55180571D01*
X74448011Y-55259394D01*
X74382107Y-55332107D01*
X74309394Y-55398011D01*
X74230571Y-55456470D01*
X74146397Y-55506921D01*
X74057684Y-55548880D01*
X73965285Y-55581940D01*
X73870091Y-55605785D01*
X73773018Y-55620185D01*
X73675001Y-55625000D01*
X72674999Y-55625000D01*
X72576982Y-55620185D01*
X72479909Y-55605785D01*
X72384715Y-55581940D01*
X72292316Y-55548880D01*
X72203603Y-55506921D01*
X72119429Y-55456470D01*
X72040606Y-55398011D01*
X71967893Y-55332107D01*
X71901989Y-55259394D01*
X71843530Y-55180571D01*
X71793079Y-55096397D01*
X71751120Y-55007684D01*
X71718060Y-54915285D01*
X71694215Y-54820091D01*
X71679815Y-54723018D01*
X71675000Y-54625001D01*
X71675000Y-40624999D01*
X71679815Y-40526982D01*
X71694215Y-40429909D01*
X71718060Y-40334715D01*
X71751120Y-40242316D01*
X71793079Y-40153603D01*
X71843530Y-40069429D01*
X71901989Y-39990606D01*
X71967893Y-39917893D01*
X72040606Y-39851989D01*
X72119429Y-39793530D01*
X72203603Y-39743079D01*
X72292316Y-39701120D01*
X72384715Y-39668060D01*
X72479909Y-39644215D01*
X72576982Y-39629815D01*
X72674999Y-39625000D01*
X73675001Y-39625000D01*
X73773018Y-39629815D01*
X73773018Y-39629815D01*
G37*
D11*
X73175000Y-47625000D03*
D10*
G36*
X60773018Y-39629815D02*
X60870091Y-39644215D01*
X60965285Y-39668060D01*
X61057684Y-39701120D01*
X61146397Y-39743079D01*
X61230571Y-39793530D01*
X61309394Y-39851989D01*
X61382107Y-39917893D01*
X61448011Y-39990606D01*
X61506470Y-40069429D01*
X61556921Y-40153603D01*
X61598880Y-40242316D01*
X61631940Y-40334715D01*
X61655785Y-40429909D01*
X61670185Y-40526982D01*
X61675000Y-40624999D01*
X61675000Y-54625001D01*
X61670185Y-54723018D01*
X61655785Y-54820091D01*
X61631940Y-54915285D01*
X61598880Y-55007684D01*
X61556921Y-55096397D01*
X61506470Y-55180571D01*
X61448011Y-55259394D01*
X61382107Y-55332107D01*
X61309394Y-55398011D01*
X61230571Y-55456470D01*
X61146397Y-55506921D01*
X61057684Y-55548880D01*
X60965285Y-55581940D01*
X60870091Y-55605785D01*
X60773018Y-55620185D01*
X60675001Y-55625000D01*
X59674999Y-55625000D01*
X59576982Y-55620185D01*
X59479909Y-55605785D01*
X59384715Y-55581940D01*
X59292316Y-55548880D01*
X59203603Y-55506921D01*
X59119429Y-55456470D01*
X59040606Y-55398011D01*
X58967893Y-55332107D01*
X58901989Y-55259394D01*
X58843530Y-55180571D01*
X58793079Y-55096397D01*
X58751120Y-55007684D01*
X58718060Y-54915285D01*
X58694215Y-54820091D01*
X58679815Y-54723018D01*
X58675000Y-54625001D01*
X58675000Y-40624999D01*
X58679815Y-40526982D01*
X58694215Y-40429909D01*
X58718060Y-40334715D01*
X58751120Y-40242316D01*
X58793079Y-40153603D01*
X58843530Y-40069429D01*
X58901989Y-39990606D01*
X58967893Y-39917893D01*
X59040606Y-39851989D01*
X59119429Y-39793530D01*
X59203603Y-39743079D01*
X59292316Y-39701120D01*
X59384715Y-39668060D01*
X59479909Y-39644215D01*
X59576982Y-39629815D01*
X59674999Y-39625000D01*
X60675001Y-39625000D01*
X60773018Y-39629815D01*
X60773018Y-39629815D01*
G37*
D11*
X60175000Y-47625000D03*
G04 #@! TD*
D10*
G04 #@! TO.N,*
G04 #@! TO.C,REF\002A\002A*
G36*
X92823018Y-52629815D02*
X92920091Y-52644215D01*
X93015285Y-52668060D01*
X93107684Y-52701120D01*
X93196397Y-52743079D01*
X93280571Y-52793530D01*
X93359394Y-52851989D01*
X93432107Y-52917893D01*
X93498011Y-52990606D01*
X93556470Y-53069429D01*
X93606921Y-53153603D01*
X93648880Y-53242316D01*
X93681940Y-53334715D01*
X93705785Y-53429909D01*
X93720185Y-53526982D01*
X93725000Y-53624999D01*
X93725000Y-54625001D01*
X93720185Y-54723018D01*
X93705785Y-54820091D01*
X93681940Y-54915285D01*
X93648880Y-55007684D01*
X93606921Y-55096397D01*
X93556470Y-55180571D01*
X93498011Y-55259394D01*
X93432107Y-55332107D01*
X93359394Y-55398011D01*
X93280571Y-55456470D01*
X93196397Y-55506921D01*
X93107684Y-55548880D01*
X93015285Y-55581940D01*
X92920091Y-55605785D01*
X92823018Y-55620185D01*
X92725001Y-55625000D01*
X78724999Y-55625000D01*
X78626982Y-55620185D01*
X78529909Y-55605785D01*
X78434715Y-55581940D01*
X78342316Y-55548880D01*
X78253603Y-55506921D01*
X78169429Y-55456470D01*
X78090606Y-55398011D01*
X78017893Y-55332107D01*
X77951989Y-55259394D01*
X77893530Y-55180571D01*
X77843079Y-55096397D01*
X77801120Y-55007684D01*
X77768060Y-54915285D01*
X77744215Y-54820091D01*
X77729815Y-54723018D01*
X77725000Y-54625001D01*
X77725000Y-53624999D01*
X77729815Y-53526982D01*
X77744215Y-53429909D01*
X77768060Y-53334715D01*
X77801120Y-53242316D01*
X77843079Y-53153603D01*
X77893530Y-53069429D01*
X77951989Y-52990606D01*
X78017893Y-52917893D01*
X78090606Y-52851989D01*
X78169429Y-52793530D01*
X78253603Y-52743079D01*
X78342316Y-52701120D01*
X78434715Y-52668060D01*
X78529909Y-52644215D01*
X78626982Y-52629815D01*
X78724999Y-52625000D01*
X92725001Y-52625000D01*
X92823018Y-52629815D01*
X92823018Y-52629815D01*
G37*
D11*
X85725000Y-54125000D03*
D10*
G36*
X92823018Y-39629815D02*
X92920091Y-39644215D01*
X93015285Y-39668060D01*
X93107684Y-39701120D01*
X93196397Y-39743079D01*
X93280571Y-39793530D01*
X93359394Y-39851989D01*
X93432107Y-39917893D01*
X93498011Y-39990606D01*
X93556470Y-40069429D01*
X93606921Y-40153603D01*
X93648880Y-40242316D01*
X93681940Y-40334715D01*
X93705785Y-40429909D01*
X93720185Y-40526982D01*
X93725000Y-40624999D01*
X93725000Y-41625001D01*
X93720185Y-41723018D01*
X93705785Y-41820091D01*
X93681940Y-41915285D01*
X93648880Y-42007684D01*
X93606921Y-42096397D01*
X93556470Y-42180571D01*
X93498011Y-42259394D01*
X93432107Y-42332107D01*
X93359394Y-42398011D01*
X93280571Y-42456470D01*
X93196397Y-42506921D01*
X93107684Y-42548880D01*
X93015285Y-42581940D01*
X92920091Y-42605785D01*
X92823018Y-42620185D01*
X92725001Y-42625000D01*
X78724999Y-42625000D01*
X78626982Y-42620185D01*
X78529909Y-42605785D01*
X78434715Y-42581940D01*
X78342316Y-42548880D01*
X78253603Y-42506921D01*
X78169429Y-42456470D01*
X78090606Y-42398011D01*
X78017893Y-42332107D01*
X77951989Y-42259394D01*
X77893530Y-42180571D01*
X77843079Y-42096397D01*
X77801120Y-42007684D01*
X77768060Y-41915285D01*
X77744215Y-41820091D01*
X77729815Y-41723018D01*
X77725000Y-41625001D01*
X77725000Y-40624999D01*
X77729815Y-40526982D01*
X77744215Y-40429909D01*
X77768060Y-40334715D01*
X77801120Y-40242316D01*
X77843079Y-40153603D01*
X77893530Y-40069429D01*
X77951989Y-39990606D01*
X78017893Y-39917893D01*
X78090606Y-39851989D01*
X78169429Y-39793530D01*
X78253603Y-39743079D01*
X78342316Y-39701120D01*
X78434715Y-39668060D01*
X78529909Y-39644215D01*
X78626982Y-39629815D01*
X78724999Y-39625000D01*
X92725001Y-39625000D01*
X92823018Y-39629815D01*
X92823018Y-39629815D01*
G37*
D11*
X85725000Y-41125000D03*
D10*
G36*
X92823018Y-39629815D02*
X92920091Y-39644215D01*
X93015285Y-39668060D01*
X93107684Y-39701120D01*
X93196397Y-39743079D01*
X93280571Y-39793530D01*
X93359394Y-39851989D01*
X93432107Y-39917893D01*
X93498011Y-39990606D01*
X93556470Y-40069429D01*
X93606921Y-40153603D01*
X93648880Y-40242316D01*
X93681940Y-40334715D01*
X93705785Y-40429909D01*
X93720185Y-40526982D01*
X93725000Y-40624999D01*
X93725000Y-54625001D01*
X93720185Y-54723018D01*
X93705785Y-54820091D01*
X93681940Y-54915285D01*
X93648880Y-55007684D01*
X93606921Y-55096397D01*
X93556470Y-55180571D01*
X93498011Y-55259394D01*
X93432107Y-55332107D01*
X93359394Y-55398011D01*
X93280571Y-55456470D01*
X93196397Y-55506921D01*
X93107684Y-55548880D01*
X93015285Y-55581940D01*
X92920091Y-55605785D01*
X92823018Y-55620185D01*
X92725001Y-55625000D01*
X91724999Y-55625000D01*
X91626982Y-55620185D01*
X91529909Y-55605785D01*
X91434715Y-55581940D01*
X91342316Y-55548880D01*
X91253603Y-55506921D01*
X91169429Y-55456470D01*
X91090606Y-55398011D01*
X91017893Y-55332107D01*
X90951989Y-55259394D01*
X90893530Y-55180571D01*
X90843079Y-55096397D01*
X90801120Y-55007684D01*
X90768060Y-54915285D01*
X90744215Y-54820091D01*
X90729815Y-54723018D01*
X90725000Y-54625001D01*
X90725000Y-40624999D01*
X90729815Y-40526982D01*
X90744215Y-40429909D01*
X90768060Y-40334715D01*
X90801120Y-40242316D01*
X90843079Y-40153603D01*
X90893530Y-40069429D01*
X90951989Y-39990606D01*
X91017893Y-39917893D01*
X91090606Y-39851989D01*
X91169429Y-39793530D01*
X91253603Y-39743079D01*
X91342316Y-39701120D01*
X91434715Y-39668060D01*
X91529909Y-39644215D01*
X91626982Y-39629815D01*
X91724999Y-39625000D01*
X92725001Y-39625000D01*
X92823018Y-39629815D01*
X92823018Y-39629815D01*
G37*
D11*
X92225000Y-47625000D03*
D10*
G36*
X79823018Y-39629815D02*
X79920091Y-39644215D01*
X80015285Y-39668060D01*
X80107684Y-39701120D01*
X80196397Y-39743079D01*
X80280571Y-39793530D01*
X80359394Y-39851989D01*
X80432107Y-39917893D01*
X80498011Y-39990606D01*
X80556470Y-40069429D01*
X80606921Y-40153603D01*
X80648880Y-40242316D01*
X80681940Y-40334715D01*
X80705785Y-40429909D01*
X80720185Y-40526982D01*
X80725000Y-40624999D01*
X80725000Y-54625001D01*
X80720185Y-54723018D01*
X80705785Y-54820091D01*
X80681940Y-54915285D01*
X80648880Y-55007684D01*
X80606921Y-55096397D01*
X80556470Y-55180571D01*
X80498011Y-55259394D01*
X80432107Y-55332107D01*
X80359394Y-55398011D01*
X80280571Y-55456470D01*
X80196397Y-55506921D01*
X80107684Y-55548880D01*
X80015285Y-55581940D01*
X79920091Y-55605785D01*
X79823018Y-55620185D01*
X79725001Y-55625000D01*
X78724999Y-55625000D01*
X78626982Y-55620185D01*
X78529909Y-55605785D01*
X78434715Y-55581940D01*
X78342316Y-55548880D01*
X78253603Y-55506921D01*
X78169429Y-55456470D01*
X78090606Y-55398011D01*
X78017893Y-55332107D01*
X77951989Y-55259394D01*
X77893530Y-55180571D01*
X77843079Y-55096397D01*
X77801120Y-55007684D01*
X77768060Y-54915285D01*
X77744215Y-54820091D01*
X77729815Y-54723018D01*
X77725000Y-54625001D01*
X77725000Y-40624999D01*
X77729815Y-40526982D01*
X77744215Y-40429909D01*
X77768060Y-40334715D01*
X77801120Y-40242316D01*
X77843079Y-40153603D01*
X77893530Y-40069429D01*
X77951989Y-39990606D01*
X78017893Y-39917893D01*
X78090606Y-39851989D01*
X78169429Y-39793530D01*
X78253603Y-39743079D01*
X78342316Y-39701120D01*
X78434715Y-39668060D01*
X78529909Y-39644215D01*
X78626982Y-39629815D01*
X78724999Y-39625000D01*
X79725001Y-39625000D01*
X79823018Y-39629815D01*
X79823018Y-39629815D01*
G37*
D11*
X79225000Y-47625000D03*
G04 #@! TD*
D10*
G04 #@! TO.N,*
G04 #@! TO.C,REF\002A\002A*
G36*
X111873018Y-52629815D02*
X111970091Y-52644215D01*
X112065285Y-52668060D01*
X112157684Y-52701120D01*
X112246397Y-52743079D01*
X112330571Y-52793530D01*
X112409394Y-52851989D01*
X112482107Y-52917893D01*
X112548011Y-52990606D01*
X112606470Y-53069429D01*
X112656921Y-53153603D01*
X112698880Y-53242316D01*
X112731940Y-53334715D01*
X112755785Y-53429909D01*
X112770185Y-53526982D01*
X112775000Y-53624999D01*
X112775000Y-54625001D01*
X112770185Y-54723018D01*
X112755785Y-54820091D01*
X112731940Y-54915285D01*
X112698880Y-55007684D01*
X112656921Y-55096397D01*
X112606470Y-55180571D01*
X112548011Y-55259394D01*
X112482107Y-55332107D01*
X112409394Y-55398011D01*
X112330571Y-55456470D01*
X112246397Y-55506921D01*
X112157684Y-55548880D01*
X112065285Y-55581940D01*
X111970091Y-55605785D01*
X111873018Y-55620185D01*
X111775001Y-55625000D01*
X97774999Y-55625000D01*
X97676982Y-55620185D01*
X97579909Y-55605785D01*
X97484715Y-55581940D01*
X97392316Y-55548880D01*
X97303603Y-55506921D01*
X97219429Y-55456470D01*
X97140606Y-55398011D01*
X97067893Y-55332107D01*
X97001989Y-55259394D01*
X96943530Y-55180571D01*
X96893079Y-55096397D01*
X96851120Y-55007684D01*
X96818060Y-54915285D01*
X96794215Y-54820091D01*
X96779815Y-54723018D01*
X96775000Y-54625001D01*
X96775000Y-53624999D01*
X96779815Y-53526982D01*
X96794215Y-53429909D01*
X96818060Y-53334715D01*
X96851120Y-53242316D01*
X96893079Y-53153603D01*
X96943530Y-53069429D01*
X97001989Y-52990606D01*
X97067893Y-52917893D01*
X97140606Y-52851989D01*
X97219429Y-52793530D01*
X97303603Y-52743079D01*
X97392316Y-52701120D01*
X97484715Y-52668060D01*
X97579909Y-52644215D01*
X97676982Y-52629815D01*
X97774999Y-52625000D01*
X111775001Y-52625000D01*
X111873018Y-52629815D01*
X111873018Y-52629815D01*
G37*
D11*
X104775000Y-54125000D03*
D10*
G36*
X111873018Y-39629815D02*
X111970091Y-39644215D01*
X112065285Y-39668060D01*
X112157684Y-39701120D01*
X112246397Y-39743079D01*
X112330571Y-39793530D01*
X112409394Y-39851989D01*
X112482107Y-39917893D01*
X112548011Y-39990606D01*
X112606470Y-40069429D01*
X112656921Y-40153603D01*
X112698880Y-40242316D01*
X112731940Y-40334715D01*
X112755785Y-40429909D01*
X112770185Y-40526982D01*
X112775000Y-40624999D01*
X112775000Y-41625001D01*
X112770185Y-41723018D01*
X112755785Y-41820091D01*
X112731940Y-41915285D01*
X112698880Y-42007684D01*
X112656921Y-42096397D01*
X112606470Y-42180571D01*
X112548011Y-42259394D01*
X112482107Y-42332107D01*
X112409394Y-42398011D01*
X112330571Y-42456470D01*
X112246397Y-42506921D01*
X112157684Y-42548880D01*
X112065285Y-42581940D01*
X111970091Y-42605785D01*
X111873018Y-42620185D01*
X111775001Y-42625000D01*
X97774999Y-42625000D01*
X97676982Y-42620185D01*
X97579909Y-42605785D01*
X97484715Y-42581940D01*
X97392316Y-42548880D01*
X97303603Y-42506921D01*
X97219429Y-42456470D01*
X97140606Y-42398011D01*
X97067893Y-42332107D01*
X97001989Y-42259394D01*
X96943530Y-42180571D01*
X96893079Y-42096397D01*
X96851120Y-42007684D01*
X96818060Y-41915285D01*
X96794215Y-41820091D01*
X96779815Y-41723018D01*
X96775000Y-41625001D01*
X96775000Y-40624999D01*
X96779815Y-40526982D01*
X96794215Y-40429909D01*
X96818060Y-40334715D01*
X96851120Y-40242316D01*
X96893079Y-40153603D01*
X96943530Y-40069429D01*
X97001989Y-39990606D01*
X97067893Y-39917893D01*
X97140606Y-39851989D01*
X97219429Y-39793530D01*
X97303603Y-39743079D01*
X97392316Y-39701120D01*
X97484715Y-39668060D01*
X97579909Y-39644215D01*
X97676982Y-39629815D01*
X97774999Y-39625000D01*
X111775001Y-39625000D01*
X111873018Y-39629815D01*
X111873018Y-39629815D01*
G37*
D11*
X104775000Y-41125000D03*
D10*
G36*
X111873018Y-39629815D02*
X111970091Y-39644215D01*
X112065285Y-39668060D01*
X112157684Y-39701120D01*
X112246397Y-39743079D01*
X112330571Y-39793530D01*
X112409394Y-39851989D01*
X112482107Y-39917893D01*
X112548011Y-39990606D01*
X112606470Y-40069429D01*
X112656921Y-40153603D01*
X112698880Y-40242316D01*
X112731940Y-40334715D01*
X112755785Y-40429909D01*
X112770185Y-40526982D01*
X112775000Y-40624999D01*
X112775000Y-54625001D01*
X112770185Y-54723018D01*
X112755785Y-54820091D01*
X112731940Y-54915285D01*
X112698880Y-55007684D01*
X112656921Y-55096397D01*
X112606470Y-55180571D01*
X112548011Y-55259394D01*
X112482107Y-55332107D01*
X112409394Y-55398011D01*
X112330571Y-55456470D01*
X112246397Y-55506921D01*
X112157684Y-55548880D01*
X112065285Y-55581940D01*
X111970091Y-55605785D01*
X111873018Y-55620185D01*
X111775001Y-55625000D01*
X110774999Y-55625000D01*
X110676982Y-55620185D01*
X110579909Y-55605785D01*
X110484715Y-55581940D01*
X110392316Y-55548880D01*
X110303603Y-55506921D01*
X110219429Y-55456470D01*
X110140606Y-55398011D01*
X110067893Y-55332107D01*
X110001989Y-55259394D01*
X109943530Y-55180571D01*
X109893079Y-55096397D01*
X109851120Y-55007684D01*
X109818060Y-54915285D01*
X109794215Y-54820091D01*
X109779815Y-54723018D01*
X109775000Y-54625001D01*
X109775000Y-40624999D01*
X109779815Y-40526982D01*
X109794215Y-40429909D01*
X109818060Y-40334715D01*
X109851120Y-40242316D01*
X109893079Y-40153603D01*
X109943530Y-40069429D01*
X110001989Y-39990606D01*
X110067893Y-39917893D01*
X110140606Y-39851989D01*
X110219429Y-39793530D01*
X110303603Y-39743079D01*
X110392316Y-39701120D01*
X110484715Y-39668060D01*
X110579909Y-39644215D01*
X110676982Y-39629815D01*
X110774999Y-39625000D01*
X111775001Y-39625000D01*
X111873018Y-39629815D01*
X111873018Y-39629815D01*
G37*
D11*
X111275000Y-47625000D03*
D10*
G36*
X98873018Y-39629815D02*
X98970091Y-39644215D01*
X99065285Y-39668060D01*
X99157684Y-39701120D01*
X99246397Y-39743079D01*
X99330571Y-39793530D01*
X99409394Y-39851989D01*
X99482107Y-39917893D01*
X99548011Y-39990606D01*
X99606470Y-40069429D01*
X99656921Y-40153603D01*
X99698880Y-40242316D01*
X99731940Y-40334715D01*
X99755785Y-40429909D01*
X99770185Y-40526982D01*
X99775000Y-40624999D01*
X99775000Y-54625001D01*
X99770185Y-54723018D01*
X99755785Y-54820091D01*
X99731940Y-54915285D01*
X99698880Y-55007684D01*
X99656921Y-55096397D01*
X99606470Y-55180571D01*
X99548011Y-55259394D01*
X99482107Y-55332107D01*
X99409394Y-55398011D01*
X99330571Y-55456470D01*
X99246397Y-55506921D01*
X99157684Y-55548880D01*
X99065285Y-55581940D01*
X98970091Y-55605785D01*
X98873018Y-55620185D01*
X98775001Y-55625000D01*
X97774999Y-55625000D01*
X97676982Y-55620185D01*
X97579909Y-55605785D01*
X97484715Y-55581940D01*
X97392316Y-55548880D01*
X97303603Y-55506921D01*
X97219429Y-55456470D01*
X97140606Y-55398011D01*
X97067893Y-55332107D01*
X97001989Y-55259394D01*
X96943530Y-55180571D01*
X96893079Y-55096397D01*
X96851120Y-55007684D01*
X96818060Y-54915285D01*
X96794215Y-54820091D01*
X96779815Y-54723018D01*
X96775000Y-54625001D01*
X96775000Y-40624999D01*
X96779815Y-40526982D01*
X96794215Y-40429909D01*
X96818060Y-40334715D01*
X96851120Y-40242316D01*
X96893079Y-40153603D01*
X96943530Y-40069429D01*
X97001989Y-39990606D01*
X97067893Y-39917893D01*
X97140606Y-39851989D01*
X97219429Y-39793530D01*
X97303603Y-39743079D01*
X97392316Y-39701120D01*
X97484715Y-39668060D01*
X97579909Y-39644215D01*
X97676982Y-39629815D01*
X97774999Y-39625000D01*
X98775001Y-39625000D01*
X98873018Y-39629815D01*
X98873018Y-39629815D01*
G37*
D11*
X98275000Y-47625000D03*
G04 #@! TD*
D10*
G04 #@! TO.N,*
G04 #@! TO.C,REF\002A\002A*
G36*
X130923018Y-52629815D02*
X131020091Y-52644215D01*
X131115285Y-52668060D01*
X131207684Y-52701120D01*
X131296397Y-52743079D01*
X131380571Y-52793530D01*
X131459394Y-52851989D01*
X131532107Y-52917893D01*
X131598011Y-52990606D01*
X131656470Y-53069429D01*
X131706921Y-53153603D01*
X131748880Y-53242316D01*
X131781940Y-53334715D01*
X131805785Y-53429909D01*
X131820185Y-53526982D01*
X131825000Y-53624999D01*
X131825000Y-54625001D01*
X131820185Y-54723018D01*
X131805785Y-54820091D01*
X131781940Y-54915285D01*
X131748880Y-55007684D01*
X131706921Y-55096397D01*
X131656470Y-55180571D01*
X131598011Y-55259394D01*
X131532107Y-55332107D01*
X131459394Y-55398011D01*
X131380571Y-55456470D01*
X131296397Y-55506921D01*
X131207684Y-55548880D01*
X131115285Y-55581940D01*
X131020091Y-55605785D01*
X130923018Y-55620185D01*
X130825001Y-55625000D01*
X116824999Y-55625000D01*
X116726982Y-55620185D01*
X116629909Y-55605785D01*
X116534715Y-55581940D01*
X116442316Y-55548880D01*
X116353603Y-55506921D01*
X116269429Y-55456470D01*
X116190606Y-55398011D01*
X116117893Y-55332107D01*
X116051989Y-55259394D01*
X115993530Y-55180571D01*
X115943079Y-55096397D01*
X115901120Y-55007684D01*
X115868060Y-54915285D01*
X115844215Y-54820091D01*
X115829815Y-54723018D01*
X115825000Y-54625001D01*
X115825000Y-53624999D01*
X115829815Y-53526982D01*
X115844215Y-53429909D01*
X115868060Y-53334715D01*
X115901120Y-53242316D01*
X115943079Y-53153603D01*
X115993530Y-53069429D01*
X116051989Y-52990606D01*
X116117893Y-52917893D01*
X116190606Y-52851989D01*
X116269429Y-52793530D01*
X116353603Y-52743079D01*
X116442316Y-52701120D01*
X116534715Y-52668060D01*
X116629909Y-52644215D01*
X116726982Y-52629815D01*
X116824999Y-52625000D01*
X130825001Y-52625000D01*
X130923018Y-52629815D01*
X130923018Y-52629815D01*
G37*
D11*
X123825000Y-54125000D03*
D10*
G36*
X130923018Y-39629815D02*
X131020091Y-39644215D01*
X131115285Y-39668060D01*
X131207684Y-39701120D01*
X131296397Y-39743079D01*
X131380571Y-39793530D01*
X131459394Y-39851989D01*
X131532107Y-39917893D01*
X131598011Y-39990606D01*
X131656470Y-40069429D01*
X131706921Y-40153603D01*
X131748880Y-40242316D01*
X131781940Y-40334715D01*
X131805785Y-40429909D01*
X131820185Y-40526982D01*
X131825000Y-40624999D01*
X131825000Y-41625001D01*
X131820185Y-41723018D01*
X131805785Y-41820091D01*
X131781940Y-41915285D01*
X131748880Y-42007684D01*
X131706921Y-42096397D01*
X131656470Y-42180571D01*
X131598011Y-42259394D01*
X131532107Y-42332107D01*
X131459394Y-42398011D01*
X131380571Y-42456470D01*
X131296397Y-42506921D01*
X131207684Y-42548880D01*
X131115285Y-42581940D01*
X131020091Y-42605785D01*
X130923018Y-42620185D01*
X130825001Y-42625000D01*
X116824999Y-42625000D01*
X116726982Y-42620185D01*
X116629909Y-42605785D01*
X116534715Y-42581940D01*
X116442316Y-42548880D01*
X116353603Y-42506921D01*
X116269429Y-42456470D01*
X116190606Y-42398011D01*
X116117893Y-42332107D01*
X116051989Y-42259394D01*
X115993530Y-42180571D01*
X115943079Y-42096397D01*
X115901120Y-42007684D01*
X115868060Y-41915285D01*
X115844215Y-41820091D01*
X115829815Y-41723018D01*
X115825000Y-41625001D01*
X115825000Y-40624999D01*
X115829815Y-40526982D01*
X115844215Y-40429909D01*
X115868060Y-40334715D01*
X115901120Y-40242316D01*
X115943079Y-40153603D01*
X115993530Y-40069429D01*
X116051989Y-39990606D01*
X116117893Y-39917893D01*
X116190606Y-39851989D01*
X116269429Y-39793530D01*
X116353603Y-39743079D01*
X116442316Y-39701120D01*
X116534715Y-39668060D01*
X116629909Y-39644215D01*
X116726982Y-39629815D01*
X116824999Y-39625000D01*
X130825001Y-39625000D01*
X130923018Y-39629815D01*
X130923018Y-39629815D01*
G37*
D11*
X123825000Y-41125000D03*
D10*
G36*
X130923018Y-39629815D02*
X131020091Y-39644215D01*
X131115285Y-39668060D01*
X131207684Y-39701120D01*
X131296397Y-39743079D01*
X131380571Y-39793530D01*
X131459394Y-39851989D01*
X131532107Y-39917893D01*
X131598011Y-39990606D01*
X131656470Y-40069429D01*
X131706921Y-40153603D01*
X131748880Y-40242316D01*
X131781940Y-40334715D01*
X131805785Y-40429909D01*
X131820185Y-40526982D01*
X131825000Y-40624999D01*
X131825000Y-54625001D01*
X131820185Y-54723018D01*
X131805785Y-54820091D01*
X131781940Y-54915285D01*
X131748880Y-55007684D01*
X131706921Y-55096397D01*
X131656470Y-55180571D01*
X131598011Y-55259394D01*
X131532107Y-55332107D01*
X131459394Y-55398011D01*
X131380571Y-55456470D01*
X131296397Y-55506921D01*
X131207684Y-55548880D01*
X131115285Y-55581940D01*
X131020091Y-55605785D01*
X130923018Y-55620185D01*
X130825001Y-55625000D01*
X129824999Y-55625000D01*
X129726982Y-55620185D01*
X129629909Y-55605785D01*
X129534715Y-55581940D01*
X129442316Y-55548880D01*
X129353603Y-55506921D01*
X129269429Y-55456470D01*
X129190606Y-55398011D01*
X129117893Y-55332107D01*
X129051989Y-55259394D01*
X128993530Y-55180571D01*
X128943079Y-55096397D01*
X128901120Y-55007684D01*
X128868060Y-54915285D01*
X128844215Y-54820091D01*
X128829815Y-54723018D01*
X128825000Y-54625001D01*
X128825000Y-40624999D01*
X128829815Y-40526982D01*
X128844215Y-40429909D01*
X128868060Y-40334715D01*
X128901120Y-40242316D01*
X128943079Y-40153603D01*
X128993530Y-40069429D01*
X129051989Y-39990606D01*
X129117893Y-39917893D01*
X129190606Y-39851989D01*
X129269429Y-39793530D01*
X129353603Y-39743079D01*
X129442316Y-39701120D01*
X129534715Y-39668060D01*
X129629909Y-39644215D01*
X129726982Y-39629815D01*
X129824999Y-39625000D01*
X130825001Y-39625000D01*
X130923018Y-39629815D01*
X130923018Y-39629815D01*
G37*
D11*
X130325000Y-47625000D03*
D10*
G36*
X117923018Y-39629815D02*
X118020091Y-39644215D01*
X118115285Y-39668060D01*
X118207684Y-39701120D01*
X118296397Y-39743079D01*
X118380571Y-39793530D01*
X118459394Y-39851989D01*
X118532107Y-39917893D01*
X118598011Y-39990606D01*
X118656470Y-40069429D01*
X118706921Y-40153603D01*
X118748880Y-40242316D01*
X118781940Y-40334715D01*
X118805785Y-40429909D01*
X118820185Y-40526982D01*
X118825000Y-40624999D01*
X118825000Y-54625001D01*
X118820185Y-54723018D01*
X118805785Y-54820091D01*
X118781940Y-54915285D01*
X118748880Y-55007684D01*
X118706921Y-55096397D01*
X118656470Y-55180571D01*
X118598011Y-55259394D01*
X118532107Y-55332107D01*
X118459394Y-55398011D01*
X118380571Y-55456470D01*
X118296397Y-55506921D01*
X118207684Y-55548880D01*
X118115285Y-55581940D01*
X118020091Y-55605785D01*
X117923018Y-55620185D01*
X117825001Y-55625000D01*
X116824999Y-55625000D01*
X116726982Y-55620185D01*
X116629909Y-55605785D01*
X116534715Y-55581940D01*
X116442316Y-55548880D01*
X116353603Y-55506921D01*
X116269429Y-55456470D01*
X116190606Y-55398011D01*
X116117893Y-55332107D01*
X116051989Y-55259394D01*
X115993530Y-55180571D01*
X115943079Y-55096397D01*
X115901120Y-55007684D01*
X115868060Y-54915285D01*
X115844215Y-54820091D01*
X115829815Y-54723018D01*
X115825000Y-54625001D01*
X115825000Y-40624999D01*
X115829815Y-40526982D01*
X115844215Y-40429909D01*
X115868060Y-40334715D01*
X115901120Y-40242316D01*
X115943079Y-40153603D01*
X115993530Y-40069429D01*
X116051989Y-39990606D01*
X116117893Y-39917893D01*
X116190606Y-39851989D01*
X116269429Y-39793530D01*
X116353603Y-39743079D01*
X116442316Y-39701120D01*
X116534715Y-39668060D01*
X116629909Y-39644215D01*
X116726982Y-39629815D01*
X116824999Y-39625000D01*
X117825001Y-39625000D01*
X117923018Y-39629815D01*
X117923018Y-39629815D01*
G37*
D11*
X117325000Y-47625000D03*
G04 #@! TD*
D10*
G04 #@! TO.N,*
G04 #@! TO.C,REF\002A\002A*
G36*
X130923018Y-76442315D02*
X131020091Y-76456715D01*
X131115285Y-76480560D01*
X131207684Y-76513620D01*
X131296397Y-76555579D01*
X131380571Y-76606030D01*
X131459394Y-76664489D01*
X131532107Y-76730393D01*
X131598011Y-76803106D01*
X131656470Y-76881929D01*
X131706921Y-76966103D01*
X131748880Y-77054816D01*
X131781940Y-77147215D01*
X131805785Y-77242409D01*
X131820185Y-77339482D01*
X131825000Y-77437499D01*
X131825000Y-78437501D01*
X131820185Y-78535518D01*
X131805785Y-78632591D01*
X131781940Y-78727785D01*
X131748880Y-78820184D01*
X131706921Y-78908897D01*
X131656470Y-78993071D01*
X131598011Y-79071894D01*
X131532107Y-79144607D01*
X131459394Y-79210511D01*
X131380571Y-79268970D01*
X131296397Y-79319421D01*
X131207684Y-79361380D01*
X131115285Y-79394440D01*
X131020091Y-79418285D01*
X130923018Y-79432685D01*
X130825001Y-79437500D01*
X116824999Y-79437500D01*
X116726982Y-79432685D01*
X116629909Y-79418285D01*
X116534715Y-79394440D01*
X116442316Y-79361380D01*
X116353603Y-79319421D01*
X116269429Y-79268970D01*
X116190606Y-79210511D01*
X116117893Y-79144607D01*
X116051989Y-79071894D01*
X115993530Y-78993071D01*
X115943079Y-78908897D01*
X115901120Y-78820184D01*
X115868060Y-78727785D01*
X115844215Y-78632591D01*
X115829815Y-78535518D01*
X115825000Y-78437501D01*
X115825000Y-77437499D01*
X115829815Y-77339482D01*
X115844215Y-77242409D01*
X115868060Y-77147215D01*
X115901120Y-77054816D01*
X115943079Y-76966103D01*
X115993530Y-76881929D01*
X116051989Y-76803106D01*
X116117893Y-76730393D01*
X116190606Y-76664489D01*
X116269429Y-76606030D01*
X116353603Y-76555579D01*
X116442316Y-76513620D01*
X116534715Y-76480560D01*
X116629909Y-76456715D01*
X116726982Y-76442315D01*
X116824999Y-76437500D01*
X130825001Y-76437500D01*
X130923018Y-76442315D01*
X130923018Y-76442315D01*
G37*
D11*
X123825000Y-77937500D03*
D10*
G36*
X130923018Y-63442315D02*
X131020091Y-63456715D01*
X131115285Y-63480560D01*
X131207684Y-63513620D01*
X131296397Y-63555579D01*
X131380571Y-63606030D01*
X131459394Y-63664489D01*
X131532107Y-63730393D01*
X131598011Y-63803106D01*
X131656470Y-63881929D01*
X131706921Y-63966103D01*
X131748880Y-64054816D01*
X131781940Y-64147215D01*
X131805785Y-64242409D01*
X131820185Y-64339482D01*
X131825000Y-64437499D01*
X131825000Y-65437501D01*
X131820185Y-65535518D01*
X131805785Y-65632591D01*
X131781940Y-65727785D01*
X131748880Y-65820184D01*
X131706921Y-65908897D01*
X131656470Y-65993071D01*
X131598011Y-66071894D01*
X131532107Y-66144607D01*
X131459394Y-66210511D01*
X131380571Y-66268970D01*
X131296397Y-66319421D01*
X131207684Y-66361380D01*
X131115285Y-66394440D01*
X131020091Y-66418285D01*
X130923018Y-66432685D01*
X130825001Y-66437500D01*
X116824999Y-66437500D01*
X116726982Y-66432685D01*
X116629909Y-66418285D01*
X116534715Y-66394440D01*
X116442316Y-66361380D01*
X116353603Y-66319421D01*
X116269429Y-66268970D01*
X116190606Y-66210511D01*
X116117893Y-66144607D01*
X116051989Y-66071894D01*
X115993530Y-65993071D01*
X115943079Y-65908897D01*
X115901120Y-65820184D01*
X115868060Y-65727785D01*
X115844215Y-65632591D01*
X115829815Y-65535518D01*
X115825000Y-65437501D01*
X115825000Y-64437499D01*
X115829815Y-64339482D01*
X115844215Y-64242409D01*
X115868060Y-64147215D01*
X115901120Y-64054816D01*
X115943079Y-63966103D01*
X115993530Y-63881929D01*
X116051989Y-63803106D01*
X116117893Y-63730393D01*
X116190606Y-63664489D01*
X116269429Y-63606030D01*
X116353603Y-63555579D01*
X116442316Y-63513620D01*
X116534715Y-63480560D01*
X116629909Y-63456715D01*
X116726982Y-63442315D01*
X116824999Y-63437500D01*
X130825001Y-63437500D01*
X130923018Y-63442315D01*
X130923018Y-63442315D01*
G37*
D11*
X123825000Y-64937500D03*
D10*
G36*
X130923018Y-63442315D02*
X131020091Y-63456715D01*
X131115285Y-63480560D01*
X131207684Y-63513620D01*
X131296397Y-63555579D01*
X131380571Y-63606030D01*
X131459394Y-63664489D01*
X131532107Y-63730393D01*
X131598011Y-63803106D01*
X131656470Y-63881929D01*
X131706921Y-63966103D01*
X131748880Y-64054816D01*
X131781940Y-64147215D01*
X131805785Y-64242409D01*
X131820185Y-64339482D01*
X131825000Y-64437499D01*
X131825000Y-78437501D01*
X131820185Y-78535518D01*
X131805785Y-78632591D01*
X131781940Y-78727785D01*
X131748880Y-78820184D01*
X131706921Y-78908897D01*
X131656470Y-78993071D01*
X131598011Y-79071894D01*
X131532107Y-79144607D01*
X131459394Y-79210511D01*
X131380571Y-79268970D01*
X131296397Y-79319421D01*
X131207684Y-79361380D01*
X131115285Y-79394440D01*
X131020091Y-79418285D01*
X130923018Y-79432685D01*
X130825001Y-79437500D01*
X129824999Y-79437500D01*
X129726982Y-79432685D01*
X129629909Y-79418285D01*
X129534715Y-79394440D01*
X129442316Y-79361380D01*
X129353603Y-79319421D01*
X129269429Y-79268970D01*
X129190606Y-79210511D01*
X129117893Y-79144607D01*
X129051989Y-79071894D01*
X128993530Y-78993071D01*
X128943079Y-78908897D01*
X128901120Y-78820184D01*
X128868060Y-78727785D01*
X128844215Y-78632591D01*
X128829815Y-78535518D01*
X128825000Y-78437501D01*
X128825000Y-64437499D01*
X128829815Y-64339482D01*
X128844215Y-64242409D01*
X128868060Y-64147215D01*
X128901120Y-64054816D01*
X128943079Y-63966103D01*
X128993530Y-63881929D01*
X129051989Y-63803106D01*
X129117893Y-63730393D01*
X129190606Y-63664489D01*
X129269429Y-63606030D01*
X129353603Y-63555579D01*
X129442316Y-63513620D01*
X129534715Y-63480560D01*
X129629909Y-63456715D01*
X129726982Y-63442315D01*
X129824999Y-63437500D01*
X130825001Y-63437500D01*
X130923018Y-63442315D01*
X130923018Y-63442315D01*
G37*
D11*
X130325000Y-71437500D03*
D10*
G36*
X117923018Y-63442315D02*
X118020091Y-63456715D01*
X118115285Y-63480560D01*
X118207684Y-63513620D01*
X118296397Y-63555579D01*
X118380571Y-63606030D01*
X118459394Y-63664489D01*
X118532107Y-63730393D01*
X118598011Y-63803106D01*
X118656470Y-63881929D01*
X118706921Y-63966103D01*
X118748880Y-64054816D01*
X118781940Y-64147215D01*
X118805785Y-64242409D01*
X118820185Y-64339482D01*
X118825000Y-64437499D01*
X118825000Y-78437501D01*
X118820185Y-78535518D01*
X118805785Y-78632591D01*
X118781940Y-78727785D01*
X118748880Y-78820184D01*
X118706921Y-78908897D01*
X118656470Y-78993071D01*
X118598011Y-79071894D01*
X118532107Y-79144607D01*
X118459394Y-79210511D01*
X118380571Y-79268970D01*
X118296397Y-79319421D01*
X118207684Y-79361380D01*
X118115285Y-79394440D01*
X118020091Y-79418285D01*
X117923018Y-79432685D01*
X117825001Y-79437500D01*
X116824999Y-79437500D01*
X116726982Y-79432685D01*
X116629909Y-79418285D01*
X116534715Y-79394440D01*
X116442316Y-79361380D01*
X116353603Y-79319421D01*
X116269429Y-79268970D01*
X116190606Y-79210511D01*
X116117893Y-79144607D01*
X116051989Y-79071894D01*
X115993530Y-78993071D01*
X115943079Y-78908897D01*
X115901120Y-78820184D01*
X115868060Y-78727785D01*
X115844215Y-78632591D01*
X115829815Y-78535518D01*
X115825000Y-78437501D01*
X115825000Y-64437499D01*
X115829815Y-64339482D01*
X115844215Y-64242409D01*
X115868060Y-64147215D01*
X115901120Y-64054816D01*
X115943079Y-63966103D01*
X115993530Y-63881929D01*
X116051989Y-63803106D01*
X116117893Y-63730393D01*
X116190606Y-63664489D01*
X116269429Y-63606030D01*
X116353603Y-63555579D01*
X116442316Y-63513620D01*
X116534715Y-63480560D01*
X116629909Y-63456715D01*
X116726982Y-63442315D01*
X116824999Y-63437500D01*
X117825001Y-63437500D01*
X117923018Y-63442315D01*
X117923018Y-63442315D01*
G37*
D11*
X117325000Y-71437500D03*
G04 #@! TD*
D10*
G04 #@! TO.N,*
G04 #@! TO.C,REF\002A\002A*
G36*
X111873018Y-76442315D02*
X111970091Y-76456715D01*
X112065285Y-76480560D01*
X112157684Y-76513620D01*
X112246397Y-76555579D01*
X112330571Y-76606030D01*
X112409394Y-76664489D01*
X112482107Y-76730393D01*
X112548011Y-76803106D01*
X112606470Y-76881929D01*
X112656921Y-76966103D01*
X112698880Y-77054816D01*
X112731940Y-77147215D01*
X112755785Y-77242409D01*
X112770185Y-77339482D01*
X112775000Y-77437499D01*
X112775000Y-78437501D01*
X112770185Y-78535518D01*
X112755785Y-78632591D01*
X112731940Y-78727785D01*
X112698880Y-78820184D01*
X112656921Y-78908897D01*
X112606470Y-78993071D01*
X112548011Y-79071894D01*
X112482107Y-79144607D01*
X112409394Y-79210511D01*
X112330571Y-79268970D01*
X112246397Y-79319421D01*
X112157684Y-79361380D01*
X112065285Y-79394440D01*
X111970091Y-79418285D01*
X111873018Y-79432685D01*
X111775001Y-79437500D01*
X97774999Y-79437500D01*
X97676982Y-79432685D01*
X97579909Y-79418285D01*
X97484715Y-79394440D01*
X97392316Y-79361380D01*
X97303603Y-79319421D01*
X97219429Y-79268970D01*
X97140606Y-79210511D01*
X97067893Y-79144607D01*
X97001989Y-79071894D01*
X96943530Y-78993071D01*
X96893079Y-78908897D01*
X96851120Y-78820184D01*
X96818060Y-78727785D01*
X96794215Y-78632591D01*
X96779815Y-78535518D01*
X96775000Y-78437501D01*
X96775000Y-77437499D01*
X96779815Y-77339482D01*
X96794215Y-77242409D01*
X96818060Y-77147215D01*
X96851120Y-77054816D01*
X96893079Y-76966103D01*
X96943530Y-76881929D01*
X97001989Y-76803106D01*
X97067893Y-76730393D01*
X97140606Y-76664489D01*
X97219429Y-76606030D01*
X97303603Y-76555579D01*
X97392316Y-76513620D01*
X97484715Y-76480560D01*
X97579909Y-76456715D01*
X97676982Y-76442315D01*
X97774999Y-76437500D01*
X111775001Y-76437500D01*
X111873018Y-76442315D01*
X111873018Y-76442315D01*
G37*
D11*
X104775000Y-77937500D03*
D10*
G36*
X111873018Y-63442315D02*
X111970091Y-63456715D01*
X112065285Y-63480560D01*
X112157684Y-63513620D01*
X112246397Y-63555579D01*
X112330571Y-63606030D01*
X112409394Y-63664489D01*
X112482107Y-63730393D01*
X112548011Y-63803106D01*
X112606470Y-63881929D01*
X112656921Y-63966103D01*
X112698880Y-64054816D01*
X112731940Y-64147215D01*
X112755785Y-64242409D01*
X112770185Y-64339482D01*
X112775000Y-64437499D01*
X112775000Y-65437501D01*
X112770185Y-65535518D01*
X112755785Y-65632591D01*
X112731940Y-65727785D01*
X112698880Y-65820184D01*
X112656921Y-65908897D01*
X112606470Y-65993071D01*
X112548011Y-66071894D01*
X112482107Y-66144607D01*
X112409394Y-66210511D01*
X112330571Y-66268970D01*
X112246397Y-66319421D01*
X112157684Y-66361380D01*
X112065285Y-66394440D01*
X111970091Y-66418285D01*
X111873018Y-66432685D01*
X111775001Y-66437500D01*
X97774999Y-66437500D01*
X97676982Y-66432685D01*
X97579909Y-66418285D01*
X97484715Y-66394440D01*
X97392316Y-66361380D01*
X97303603Y-66319421D01*
X97219429Y-66268970D01*
X97140606Y-66210511D01*
X97067893Y-66144607D01*
X97001989Y-66071894D01*
X96943530Y-65993071D01*
X96893079Y-65908897D01*
X96851120Y-65820184D01*
X96818060Y-65727785D01*
X96794215Y-65632591D01*
X96779815Y-65535518D01*
X96775000Y-65437501D01*
X96775000Y-64437499D01*
X96779815Y-64339482D01*
X96794215Y-64242409D01*
X96818060Y-64147215D01*
X96851120Y-64054816D01*
X96893079Y-63966103D01*
X96943530Y-63881929D01*
X97001989Y-63803106D01*
X97067893Y-63730393D01*
X97140606Y-63664489D01*
X97219429Y-63606030D01*
X97303603Y-63555579D01*
X97392316Y-63513620D01*
X97484715Y-63480560D01*
X97579909Y-63456715D01*
X97676982Y-63442315D01*
X97774999Y-63437500D01*
X111775001Y-63437500D01*
X111873018Y-63442315D01*
X111873018Y-63442315D01*
G37*
D11*
X104775000Y-64937500D03*
D10*
G36*
X111873018Y-63442315D02*
X111970091Y-63456715D01*
X112065285Y-63480560D01*
X112157684Y-63513620D01*
X112246397Y-63555579D01*
X112330571Y-63606030D01*
X112409394Y-63664489D01*
X112482107Y-63730393D01*
X112548011Y-63803106D01*
X112606470Y-63881929D01*
X112656921Y-63966103D01*
X112698880Y-64054816D01*
X112731940Y-64147215D01*
X112755785Y-64242409D01*
X112770185Y-64339482D01*
X112775000Y-64437499D01*
X112775000Y-78437501D01*
X112770185Y-78535518D01*
X112755785Y-78632591D01*
X112731940Y-78727785D01*
X112698880Y-78820184D01*
X112656921Y-78908897D01*
X112606470Y-78993071D01*
X112548011Y-79071894D01*
X112482107Y-79144607D01*
X112409394Y-79210511D01*
X112330571Y-79268970D01*
X112246397Y-79319421D01*
X112157684Y-79361380D01*
X112065285Y-79394440D01*
X111970091Y-79418285D01*
X111873018Y-79432685D01*
X111775001Y-79437500D01*
X110774999Y-79437500D01*
X110676982Y-79432685D01*
X110579909Y-79418285D01*
X110484715Y-79394440D01*
X110392316Y-79361380D01*
X110303603Y-79319421D01*
X110219429Y-79268970D01*
X110140606Y-79210511D01*
X110067893Y-79144607D01*
X110001989Y-79071894D01*
X109943530Y-78993071D01*
X109893079Y-78908897D01*
X109851120Y-78820184D01*
X109818060Y-78727785D01*
X109794215Y-78632591D01*
X109779815Y-78535518D01*
X109775000Y-78437501D01*
X109775000Y-64437499D01*
X109779815Y-64339482D01*
X109794215Y-64242409D01*
X109818060Y-64147215D01*
X109851120Y-64054816D01*
X109893079Y-63966103D01*
X109943530Y-63881929D01*
X110001989Y-63803106D01*
X110067893Y-63730393D01*
X110140606Y-63664489D01*
X110219429Y-63606030D01*
X110303603Y-63555579D01*
X110392316Y-63513620D01*
X110484715Y-63480560D01*
X110579909Y-63456715D01*
X110676982Y-63442315D01*
X110774999Y-63437500D01*
X111775001Y-63437500D01*
X111873018Y-63442315D01*
X111873018Y-63442315D01*
G37*
D11*
X111275000Y-71437500D03*
D10*
G36*
X98873018Y-63442315D02*
X98970091Y-63456715D01*
X99065285Y-63480560D01*
X99157684Y-63513620D01*
X99246397Y-63555579D01*
X99330571Y-63606030D01*
X99409394Y-63664489D01*
X99482107Y-63730393D01*
X99548011Y-63803106D01*
X99606470Y-63881929D01*
X99656921Y-63966103D01*
X99698880Y-64054816D01*
X99731940Y-64147215D01*
X99755785Y-64242409D01*
X99770185Y-64339482D01*
X99775000Y-64437499D01*
X99775000Y-78437501D01*
X99770185Y-78535518D01*
X99755785Y-78632591D01*
X99731940Y-78727785D01*
X99698880Y-78820184D01*
X99656921Y-78908897D01*
X99606470Y-78993071D01*
X99548011Y-79071894D01*
X99482107Y-79144607D01*
X99409394Y-79210511D01*
X99330571Y-79268970D01*
X99246397Y-79319421D01*
X99157684Y-79361380D01*
X99065285Y-79394440D01*
X98970091Y-79418285D01*
X98873018Y-79432685D01*
X98775001Y-79437500D01*
X97774999Y-79437500D01*
X97676982Y-79432685D01*
X97579909Y-79418285D01*
X97484715Y-79394440D01*
X97392316Y-79361380D01*
X97303603Y-79319421D01*
X97219429Y-79268970D01*
X97140606Y-79210511D01*
X97067893Y-79144607D01*
X97001989Y-79071894D01*
X96943530Y-78993071D01*
X96893079Y-78908897D01*
X96851120Y-78820184D01*
X96818060Y-78727785D01*
X96794215Y-78632591D01*
X96779815Y-78535518D01*
X96775000Y-78437501D01*
X96775000Y-64437499D01*
X96779815Y-64339482D01*
X96794215Y-64242409D01*
X96818060Y-64147215D01*
X96851120Y-64054816D01*
X96893079Y-63966103D01*
X96943530Y-63881929D01*
X97001989Y-63803106D01*
X97067893Y-63730393D01*
X97140606Y-63664489D01*
X97219429Y-63606030D01*
X97303603Y-63555579D01*
X97392316Y-63513620D01*
X97484715Y-63480560D01*
X97579909Y-63456715D01*
X97676982Y-63442315D01*
X97774999Y-63437500D01*
X98775001Y-63437500D01*
X98873018Y-63442315D01*
X98873018Y-63442315D01*
G37*
D11*
X98275000Y-71437500D03*
G04 #@! TD*
D10*
G04 #@! TO.N,*
G04 #@! TO.C,REF\002A\002A*
G36*
X92823018Y-76442315D02*
X92920091Y-76456715D01*
X93015285Y-76480560D01*
X93107684Y-76513620D01*
X93196397Y-76555579D01*
X93280571Y-76606030D01*
X93359394Y-76664489D01*
X93432107Y-76730393D01*
X93498011Y-76803106D01*
X93556470Y-76881929D01*
X93606921Y-76966103D01*
X93648880Y-77054816D01*
X93681940Y-77147215D01*
X93705785Y-77242409D01*
X93720185Y-77339482D01*
X93725000Y-77437499D01*
X93725000Y-78437501D01*
X93720185Y-78535518D01*
X93705785Y-78632591D01*
X93681940Y-78727785D01*
X93648880Y-78820184D01*
X93606921Y-78908897D01*
X93556470Y-78993071D01*
X93498011Y-79071894D01*
X93432107Y-79144607D01*
X93359394Y-79210511D01*
X93280571Y-79268970D01*
X93196397Y-79319421D01*
X93107684Y-79361380D01*
X93015285Y-79394440D01*
X92920091Y-79418285D01*
X92823018Y-79432685D01*
X92725001Y-79437500D01*
X78724999Y-79437500D01*
X78626982Y-79432685D01*
X78529909Y-79418285D01*
X78434715Y-79394440D01*
X78342316Y-79361380D01*
X78253603Y-79319421D01*
X78169429Y-79268970D01*
X78090606Y-79210511D01*
X78017893Y-79144607D01*
X77951989Y-79071894D01*
X77893530Y-78993071D01*
X77843079Y-78908897D01*
X77801120Y-78820184D01*
X77768060Y-78727785D01*
X77744215Y-78632591D01*
X77729815Y-78535518D01*
X77725000Y-78437501D01*
X77725000Y-77437499D01*
X77729815Y-77339482D01*
X77744215Y-77242409D01*
X77768060Y-77147215D01*
X77801120Y-77054816D01*
X77843079Y-76966103D01*
X77893530Y-76881929D01*
X77951989Y-76803106D01*
X78017893Y-76730393D01*
X78090606Y-76664489D01*
X78169429Y-76606030D01*
X78253603Y-76555579D01*
X78342316Y-76513620D01*
X78434715Y-76480560D01*
X78529909Y-76456715D01*
X78626982Y-76442315D01*
X78724999Y-76437500D01*
X92725001Y-76437500D01*
X92823018Y-76442315D01*
X92823018Y-76442315D01*
G37*
D11*
X85725000Y-77937500D03*
D10*
G36*
X92823018Y-63442315D02*
X92920091Y-63456715D01*
X93015285Y-63480560D01*
X93107684Y-63513620D01*
X93196397Y-63555579D01*
X93280571Y-63606030D01*
X93359394Y-63664489D01*
X93432107Y-63730393D01*
X93498011Y-63803106D01*
X93556470Y-63881929D01*
X93606921Y-63966103D01*
X93648880Y-64054816D01*
X93681940Y-64147215D01*
X93705785Y-64242409D01*
X93720185Y-64339482D01*
X93725000Y-64437499D01*
X93725000Y-65437501D01*
X93720185Y-65535518D01*
X93705785Y-65632591D01*
X93681940Y-65727785D01*
X93648880Y-65820184D01*
X93606921Y-65908897D01*
X93556470Y-65993071D01*
X93498011Y-66071894D01*
X93432107Y-66144607D01*
X93359394Y-66210511D01*
X93280571Y-66268970D01*
X93196397Y-66319421D01*
X93107684Y-66361380D01*
X93015285Y-66394440D01*
X92920091Y-66418285D01*
X92823018Y-66432685D01*
X92725001Y-66437500D01*
X78724999Y-66437500D01*
X78626982Y-66432685D01*
X78529909Y-66418285D01*
X78434715Y-66394440D01*
X78342316Y-66361380D01*
X78253603Y-66319421D01*
X78169429Y-66268970D01*
X78090606Y-66210511D01*
X78017893Y-66144607D01*
X77951989Y-66071894D01*
X77893530Y-65993071D01*
X77843079Y-65908897D01*
X77801120Y-65820184D01*
X77768060Y-65727785D01*
X77744215Y-65632591D01*
X77729815Y-65535518D01*
X77725000Y-65437501D01*
X77725000Y-64437499D01*
X77729815Y-64339482D01*
X77744215Y-64242409D01*
X77768060Y-64147215D01*
X77801120Y-64054816D01*
X77843079Y-63966103D01*
X77893530Y-63881929D01*
X77951989Y-63803106D01*
X78017893Y-63730393D01*
X78090606Y-63664489D01*
X78169429Y-63606030D01*
X78253603Y-63555579D01*
X78342316Y-63513620D01*
X78434715Y-63480560D01*
X78529909Y-63456715D01*
X78626982Y-63442315D01*
X78724999Y-63437500D01*
X92725001Y-63437500D01*
X92823018Y-63442315D01*
X92823018Y-63442315D01*
G37*
D11*
X85725000Y-64937500D03*
D10*
G36*
X92823018Y-63442315D02*
X92920091Y-63456715D01*
X93015285Y-63480560D01*
X93107684Y-63513620D01*
X93196397Y-63555579D01*
X93280571Y-63606030D01*
X93359394Y-63664489D01*
X93432107Y-63730393D01*
X93498011Y-63803106D01*
X93556470Y-63881929D01*
X93606921Y-63966103D01*
X93648880Y-64054816D01*
X93681940Y-64147215D01*
X93705785Y-64242409D01*
X93720185Y-64339482D01*
X93725000Y-64437499D01*
X93725000Y-78437501D01*
X93720185Y-78535518D01*
X93705785Y-78632591D01*
X93681940Y-78727785D01*
X93648880Y-78820184D01*
X93606921Y-78908897D01*
X93556470Y-78993071D01*
X93498011Y-79071894D01*
X93432107Y-79144607D01*
X93359394Y-79210511D01*
X93280571Y-79268970D01*
X93196397Y-79319421D01*
X93107684Y-79361380D01*
X93015285Y-79394440D01*
X92920091Y-79418285D01*
X92823018Y-79432685D01*
X92725001Y-79437500D01*
X91724999Y-79437500D01*
X91626982Y-79432685D01*
X91529909Y-79418285D01*
X91434715Y-79394440D01*
X91342316Y-79361380D01*
X91253603Y-79319421D01*
X91169429Y-79268970D01*
X91090606Y-79210511D01*
X91017893Y-79144607D01*
X90951989Y-79071894D01*
X90893530Y-78993071D01*
X90843079Y-78908897D01*
X90801120Y-78820184D01*
X90768060Y-78727785D01*
X90744215Y-78632591D01*
X90729815Y-78535518D01*
X90725000Y-78437501D01*
X90725000Y-64437499D01*
X90729815Y-64339482D01*
X90744215Y-64242409D01*
X90768060Y-64147215D01*
X90801120Y-64054816D01*
X90843079Y-63966103D01*
X90893530Y-63881929D01*
X90951989Y-63803106D01*
X91017893Y-63730393D01*
X91090606Y-63664489D01*
X91169429Y-63606030D01*
X91253603Y-63555579D01*
X91342316Y-63513620D01*
X91434715Y-63480560D01*
X91529909Y-63456715D01*
X91626982Y-63442315D01*
X91724999Y-63437500D01*
X92725001Y-63437500D01*
X92823018Y-63442315D01*
X92823018Y-63442315D01*
G37*
D11*
X92225000Y-71437500D03*
D10*
G36*
X79823018Y-63442315D02*
X79920091Y-63456715D01*
X80015285Y-63480560D01*
X80107684Y-63513620D01*
X80196397Y-63555579D01*
X80280571Y-63606030D01*
X80359394Y-63664489D01*
X80432107Y-63730393D01*
X80498011Y-63803106D01*
X80556470Y-63881929D01*
X80606921Y-63966103D01*
X80648880Y-64054816D01*
X80681940Y-64147215D01*
X80705785Y-64242409D01*
X80720185Y-64339482D01*
X80725000Y-64437499D01*
X80725000Y-78437501D01*
X80720185Y-78535518D01*
X80705785Y-78632591D01*
X80681940Y-78727785D01*
X80648880Y-78820184D01*
X80606921Y-78908897D01*
X80556470Y-78993071D01*
X80498011Y-79071894D01*
X80432107Y-79144607D01*
X80359394Y-79210511D01*
X80280571Y-79268970D01*
X80196397Y-79319421D01*
X80107684Y-79361380D01*
X80015285Y-79394440D01*
X79920091Y-79418285D01*
X79823018Y-79432685D01*
X79725001Y-79437500D01*
X78724999Y-79437500D01*
X78626982Y-79432685D01*
X78529909Y-79418285D01*
X78434715Y-79394440D01*
X78342316Y-79361380D01*
X78253603Y-79319421D01*
X78169429Y-79268970D01*
X78090606Y-79210511D01*
X78017893Y-79144607D01*
X77951989Y-79071894D01*
X77893530Y-78993071D01*
X77843079Y-78908897D01*
X77801120Y-78820184D01*
X77768060Y-78727785D01*
X77744215Y-78632591D01*
X77729815Y-78535518D01*
X77725000Y-78437501D01*
X77725000Y-64437499D01*
X77729815Y-64339482D01*
X77744215Y-64242409D01*
X77768060Y-64147215D01*
X77801120Y-64054816D01*
X77843079Y-63966103D01*
X77893530Y-63881929D01*
X77951989Y-63803106D01*
X78017893Y-63730393D01*
X78090606Y-63664489D01*
X78169429Y-63606030D01*
X78253603Y-63555579D01*
X78342316Y-63513620D01*
X78434715Y-63480560D01*
X78529909Y-63456715D01*
X78626982Y-63442315D01*
X78724999Y-63437500D01*
X79725001Y-63437500D01*
X79823018Y-63442315D01*
X79823018Y-63442315D01*
G37*
D11*
X79225000Y-71437500D03*
G04 #@! TD*
D10*
G04 #@! TO.N,*
G04 #@! TO.C,REF\002A\002A*
G36*
X73773018Y-76442315D02*
X73870091Y-76456715D01*
X73965285Y-76480560D01*
X74057684Y-76513620D01*
X74146397Y-76555579D01*
X74230571Y-76606030D01*
X74309394Y-76664489D01*
X74382107Y-76730393D01*
X74448011Y-76803106D01*
X74506470Y-76881929D01*
X74556921Y-76966103D01*
X74598880Y-77054816D01*
X74631940Y-77147215D01*
X74655785Y-77242409D01*
X74670185Y-77339482D01*
X74675000Y-77437499D01*
X74675000Y-78437501D01*
X74670185Y-78535518D01*
X74655785Y-78632591D01*
X74631940Y-78727785D01*
X74598880Y-78820184D01*
X74556921Y-78908897D01*
X74506470Y-78993071D01*
X74448011Y-79071894D01*
X74382107Y-79144607D01*
X74309394Y-79210511D01*
X74230571Y-79268970D01*
X74146397Y-79319421D01*
X74057684Y-79361380D01*
X73965285Y-79394440D01*
X73870091Y-79418285D01*
X73773018Y-79432685D01*
X73675001Y-79437500D01*
X59674999Y-79437500D01*
X59576982Y-79432685D01*
X59479909Y-79418285D01*
X59384715Y-79394440D01*
X59292316Y-79361380D01*
X59203603Y-79319421D01*
X59119429Y-79268970D01*
X59040606Y-79210511D01*
X58967893Y-79144607D01*
X58901989Y-79071894D01*
X58843530Y-78993071D01*
X58793079Y-78908897D01*
X58751120Y-78820184D01*
X58718060Y-78727785D01*
X58694215Y-78632591D01*
X58679815Y-78535518D01*
X58675000Y-78437501D01*
X58675000Y-77437499D01*
X58679815Y-77339482D01*
X58694215Y-77242409D01*
X58718060Y-77147215D01*
X58751120Y-77054816D01*
X58793079Y-76966103D01*
X58843530Y-76881929D01*
X58901989Y-76803106D01*
X58967893Y-76730393D01*
X59040606Y-76664489D01*
X59119429Y-76606030D01*
X59203603Y-76555579D01*
X59292316Y-76513620D01*
X59384715Y-76480560D01*
X59479909Y-76456715D01*
X59576982Y-76442315D01*
X59674999Y-76437500D01*
X73675001Y-76437500D01*
X73773018Y-76442315D01*
X73773018Y-76442315D01*
G37*
D11*
X66675000Y-77937500D03*
D10*
G36*
X73773018Y-63442315D02*
X73870091Y-63456715D01*
X73965285Y-63480560D01*
X74057684Y-63513620D01*
X74146397Y-63555579D01*
X74230571Y-63606030D01*
X74309394Y-63664489D01*
X74382107Y-63730393D01*
X74448011Y-63803106D01*
X74506470Y-63881929D01*
X74556921Y-63966103D01*
X74598880Y-64054816D01*
X74631940Y-64147215D01*
X74655785Y-64242409D01*
X74670185Y-64339482D01*
X74675000Y-64437499D01*
X74675000Y-65437501D01*
X74670185Y-65535518D01*
X74655785Y-65632591D01*
X74631940Y-65727785D01*
X74598880Y-65820184D01*
X74556921Y-65908897D01*
X74506470Y-65993071D01*
X74448011Y-66071894D01*
X74382107Y-66144607D01*
X74309394Y-66210511D01*
X74230571Y-66268970D01*
X74146397Y-66319421D01*
X74057684Y-66361380D01*
X73965285Y-66394440D01*
X73870091Y-66418285D01*
X73773018Y-66432685D01*
X73675001Y-66437500D01*
X59674999Y-66437500D01*
X59576982Y-66432685D01*
X59479909Y-66418285D01*
X59384715Y-66394440D01*
X59292316Y-66361380D01*
X59203603Y-66319421D01*
X59119429Y-66268970D01*
X59040606Y-66210511D01*
X58967893Y-66144607D01*
X58901989Y-66071894D01*
X58843530Y-65993071D01*
X58793079Y-65908897D01*
X58751120Y-65820184D01*
X58718060Y-65727785D01*
X58694215Y-65632591D01*
X58679815Y-65535518D01*
X58675000Y-65437501D01*
X58675000Y-64437499D01*
X58679815Y-64339482D01*
X58694215Y-64242409D01*
X58718060Y-64147215D01*
X58751120Y-64054816D01*
X58793079Y-63966103D01*
X58843530Y-63881929D01*
X58901989Y-63803106D01*
X58967893Y-63730393D01*
X59040606Y-63664489D01*
X59119429Y-63606030D01*
X59203603Y-63555579D01*
X59292316Y-63513620D01*
X59384715Y-63480560D01*
X59479909Y-63456715D01*
X59576982Y-63442315D01*
X59674999Y-63437500D01*
X73675001Y-63437500D01*
X73773018Y-63442315D01*
X73773018Y-63442315D01*
G37*
D11*
X66675000Y-64937500D03*
D10*
G36*
X73773018Y-63442315D02*
X73870091Y-63456715D01*
X73965285Y-63480560D01*
X74057684Y-63513620D01*
X74146397Y-63555579D01*
X74230571Y-63606030D01*
X74309394Y-63664489D01*
X74382107Y-63730393D01*
X74448011Y-63803106D01*
X74506470Y-63881929D01*
X74556921Y-63966103D01*
X74598880Y-64054816D01*
X74631940Y-64147215D01*
X74655785Y-64242409D01*
X74670185Y-64339482D01*
X74675000Y-64437499D01*
X74675000Y-78437501D01*
X74670185Y-78535518D01*
X74655785Y-78632591D01*
X74631940Y-78727785D01*
X74598880Y-78820184D01*
X74556921Y-78908897D01*
X74506470Y-78993071D01*
X74448011Y-79071894D01*
X74382107Y-79144607D01*
X74309394Y-79210511D01*
X74230571Y-79268970D01*
X74146397Y-79319421D01*
X74057684Y-79361380D01*
X73965285Y-79394440D01*
X73870091Y-79418285D01*
X73773018Y-79432685D01*
X73675001Y-79437500D01*
X72674999Y-79437500D01*
X72576982Y-79432685D01*
X72479909Y-79418285D01*
X72384715Y-79394440D01*
X72292316Y-79361380D01*
X72203603Y-79319421D01*
X72119429Y-79268970D01*
X72040606Y-79210511D01*
X71967893Y-79144607D01*
X71901989Y-79071894D01*
X71843530Y-78993071D01*
X71793079Y-78908897D01*
X71751120Y-78820184D01*
X71718060Y-78727785D01*
X71694215Y-78632591D01*
X71679815Y-78535518D01*
X71675000Y-78437501D01*
X71675000Y-64437499D01*
X71679815Y-64339482D01*
X71694215Y-64242409D01*
X71718060Y-64147215D01*
X71751120Y-64054816D01*
X71793079Y-63966103D01*
X71843530Y-63881929D01*
X71901989Y-63803106D01*
X71967893Y-63730393D01*
X72040606Y-63664489D01*
X72119429Y-63606030D01*
X72203603Y-63555579D01*
X72292316Y-63513620D01*
X72384715Y-63480560D01*
X72479909Y-63456715D01*
X72576982Y-63442315D01*
X72674999Y-63437500D01*
X73675001Y-63437500D01*
X73773018Y-63442315D01*
X73773018Y-63442315D01*
G37*
D11*
X73175000Y-71437500D03*
D10*
G36*
X60773018Y-63442315D02*
X60870091Y-63456715D01*
X60965285Y-63480560D01*
X61057684Y-63513620D01*
X61146397Y-63555579D01*
X61230571Y-63606030D01*
X61309394Y-63664489D01*
X61382107Y-63730393D01*
X61448011Y-63803106D01*
X61506470Y-63881929D01*
X61556921Y-63966103D01*
X61598880Y-64054816D01*
X61631940Y-64147215D01*
X61655785Y-64242409D01*
X61670185Y-64339482D01*
X61675000Y-64437499D01*
X61675000Y-78437501D01*
X61670185Y-78535518D01*
X61655785Y-78632591D01*
X61631940Y-78727785D01*
X61598880Y-78820184D01*
X61556921Y-78908897D01*
X61506470Y-78993071D01*
X61448011Y-79071894D01*
X61382107Y-79144607D01*
X61309394Y-79210511D01*
X61230571Y-79268970D01*
X61146397Y-79319421D01*
X61057684Y-79361380D01*
X60965285Y-79394440D01*
X60870091Y-79418285D01*
X60773018Y-79432685D01*
X60675001Y-79437500D01*
X59674999Y-79437500D01*
X59576982Y-79432685D01*
X59479909Y-79418285D01*
X59384715Y-79394440D01*
X59292316Y-79361380D01*
X59203603Y-79319421D01*
X59119429Y-79268970D01*
X59040606Y-79210511D01*
X58967893Y-79144607D01*
X58901989Y-79071894D01*
X58843530Y-78993071D01*
X58793079Y-78908897D01*
X58751120Y-78820184D01*
X58718060Y-78727785D01*
X58694215Y-78632591D01*
X58679815Y-78535518D01*
X58675000Y-78437501D01*
X58675000Y-64437499D01*
X58679815Y-64339482D01*
X58694215Y-64242409D01*
X58718060Y-64147215D01*
X58751120Y-64054816D01*
X58793079Y-63966103D01*
X58843530Y-63881929D01*
X58901989Y-63803106D01*
X58967893Y-63730393D01*
X59040606Y-63664489D01*
X59119429Y-63606030D01*
X59203603Y-63555579D01*
X59292316Y-63513620D01*
X59384715Y-63480560D01*
X59479909Y-63456715D01*
X59576982Y-63442315D01*
X59674999Y-63437500D01*
X60675001Y-63437500D01*
X60773018Y-63442315D01*
X60773018Y-63442315D01*
G37*
D11*
X60175000Y-71437500D03*
G04 #@! TD*
D10*
G04 #@! TO.N,*
G04 #@! TO.C,REF\002A\002A*
G36*
X54723018Y-76442315D02*
X54820091Y-76456715D01*
X54915285Y-76480560D01*
X55007684Y-76513620D01*
X55096397Y-76555579D01*
X55180571Y-76606030D01*
X55259394Y-76664489D01*
X55332107Y-76730393D01*
X55398011Y-76803106D01*
X55456470Y-76881929D01*
X55506921Y-76966103D01*
X55548880Y-77054816D01*
X55581940Y-77147215D01*
X55605785Y-77242409D01*
X55620185Y-77339482D01*
X55625000Y-77437499D01*
X55625000Y-78437501D01*
X55620185Y-78535518D01*
X55605785Y-78632591D01*
X55581940Y-78727785D01*
X55548880Y-78820184D01*
X55506921Y-78908897D01*
X55456470Y-78993071D01*
X55398011Y-79071894D01*
X55332107Y-79144607D01*
X55259394Y-79210511D01*
X55180571Y-79268970D01*
X55096397Y-79319421D01*
X55007684Y-79361380D01*
X54915285Y-79394440D01*
X54820091Y-79418285D01*
X54723018Y-79432685D01*
X54625001Y-79437500D01*
X40624999Y-79437500D01*
X40526982Y-79432685D01*
X40429909Y-79418285D01*
X40334715Y-79394440D01*
X40242316Y-79361380D01*
X40153603Y-79319421D01*
X40069429Y-79268970D01*
X39990606Y-79210511D01*
X39917893Y-79144607D01*
X39851989Y-79071894D01*
X39793530Y-78993071D01*
X39743079Y-78908897D01*
X39701120Y-78820184D01*
X39668060Y-78727785D01*
X39644215Y-78632591D01*
X39629815Y-78535518D01*
X39625000Y-78437501D01*
X39625000Y-77437499D01*
X39629815Y-77339482D01*
X39644215Y-77242409D01*
X39668060Y-77147215D01*
X39701120Y-77054816D01*
X39743079Y-76966103D01*
X39793530Y-76881929D01*
X39851989Y-76803106D01*
X39917893Y-76730393D01*
X39990606Y-76664489D01*
X40069429Y-76606030D01*
X40153603Y-76555579D01*
X40242316Y-76513620D01*
X40334715Y-76480560D01*
X40429909Y-76456715D01*
X40526982Y-76442315D01*
X40624999Y-76437500D01*
X54625001Y-76437500D01*
X54723018Y-76442315D01*
X54723018Y-76442315D01*
G37*
D11*
X47625000Y-77937500D03*
D10*
G36*
X54723018Y-63442315D02*
X54820091Y-63456715D01*
X54915285Y-63480560D01*
X55007684Y-63513620D01*
X55096397Y-63555579D01*
X55180571Y-63606030D01*
X55259394Y-63664489D01*
X55332107Y-63730393D01*
X55398011Y-63803106D01*
X55456470Y-63881929D01*
X55506921Y-63966103D01*
X55548880Y-64054816D01*
X55581940Y-64147215D01*
X55605785Y-64242409D01*
X55620185Y-64339482D01*
X55625000Y-64437499D01*
X55625000Y-65437501D01*
X55620185Y-65535518D01*
X55605785Y-65632591D01*
X55581940Y-65727785D01*
X55548880Y-65820184D01*
X55506921Y-65908897D01*
X55456470Y-65993071D01*
X55398011Y-66071894D01*
X55332107Y-66144607D01*
X55259394Y-66210511D01*
X55180571Y-66268970D01*
X55096397Y-66319421D01*
X55007684Y-66361380D01*
X54915285Y-66394440D01*
X54820091Y-66418285D01*
X54723018Y-66432685D01*
X54625001Y-66437500D01*
X40624999Y-66437500D01*
X40526982Y-66432685D01*
X40429909Y-66418285D01*
X40334715Y-66394440D01*
X40242316Y-66361380D01*
X40153603Y-66319421D01*
X40069429Y-66268970D01*
X39990606Y-66210511D01*
X39917893Y-66144607D01*
X39851989Y-66071894D01*
X39793530Y-65993071D01*
X39743079Y-65908897D01*
X39701120Y-65820184D01*
X39668060Y-65727785D01*
X39644215Y-65632591D01*
X39629815Y-65535518D01*
X39625000Y-65437501D01*
X39625000Y-64437499D01*
X39629815Y-64339482D01*
X39644215Y-64242409D01*
X39668060Y-64147215D01*
X39701120Y-64054816D01*
X39743079Y-63966103D01*
X39793530Y-63881929D01*
X39851989Y-63803106D01*
X39917893Y-63730393D01*
X39990606Y-63664489D01*
X40069429Y-63606030D01*
X40153603Y-63555579D01*
X40242316Y-63513620D01*
X40334715Y-63480560D01*
X40429909Y-63456715D01*
X40526982Y-63442315D01*
X40624999Y-63437500D01*
X54625001Y-63437500D01*
X54723018Y-63442315D01*
X54723018Y-63442315D01*
G37*
D11*
X47625000Y-64937500D03*
D10*
G36*
X54723018Y-63442315D02*
X54820091Y-63456715D01*
X54915285Y-63480560D01*
X55007684Y-63513620D01*
X55096397Y-63555579D01*
X55180571Y-63606030D01*
X55259394Y-63664489D01*
X55332107Y-63730393D01*
X55398011Y-63803106D01*
X55456470Y-63881929D01*
X55506921Y-63966103D01*
X55548880Y-64054816D01*
X55581940Y-64147215D01*
X55605785Y-64242409D01*
X55620185Y-64339482D01*
X55625000Y-64437499D01*
X55625000Y-78437501D01*
X55620185Y-78535518D01*
X55605785Y-78632591D01*
X55581940Y-78727785D01*
X55548880Y-78820184D01*
X55506921Y-78908897D01*
X55456470Y-78993071D01*
X55398011Y-79071894D01*
X55332107Y-79144607D01*
X55259394Y-79210511D01*
X55180571Y-79268970D01*
X55096397Y-79319421D01*
X55007684Y-79361380D01*
X54915285Y-79394440D01*
X54820091Y-79418285D01*
X54723018Y-79432685D01*
X54625001Y-79437500D01*
X53624999Y-79437500D01*
X53526982Y-79432685D01*
X53429909Y-79418285D01*
X53334715Y-79394440D01*
X53242316Y-79361380D01*
X53153603Y-79319421D01*
X53069429Y-79268970D01*
X52990606Y-79210511D01*
X52917893Y-79144607D01*
X52851989Y-79071894D01*
X52793530Y-78993071D01*
X52743079Y-78908897D01*
X52701120Y-78820184D01*
X52668060Y-78727785D01*
X52644215Y-78632591D01*
X52629815Y-78535518D01*
X52625000Y-78437501D01*
X52625000Y-64437499D01*
X52629815Y-64339482D01*
X52644215Y-64242409D01*
X52668060Y-64147215D01*
X52701120Y-64054816D01*
X52743079Y-63966103D01*
X52793530Y-63881929D01*
X52851989Y-63803106D01*
X52917893Y-63730393D01*
X52990606Y-63664489D01*
X53069429Y-63606030D01*
X53153603Y-63555579D01*
X53242316Y-63513620D01*
X53334715Y-63480560D01*
X53429909Y-63456715D01*
X53526982Y-63442315D01*
X53624999Y-63437500D01*
X54625001Y-63437500D01*
X54723018Y-63442315D01*
X54723018Y-63442315D01*
G37*
D11*
X54125000Y-71437500D03*
D10*
G36*
X41723018Y-63442315D02*
X41820091Y-63456715D01*
X41915285Y-63480560D01*
X42007684Y-63513620D01*
X42096397Y-63555579D01*
X42180571Y-63606030D01*
X42259394Y-63664489D01*
X42332107Y-63730393D01*
X42398011Y-63803106D01*
X42456470Y-63881929D01*
X42506921Y-63966103D01*
X42548880Y-64054816D01*
X42581940Y-64147215D01*
X42605785Y-64242409D01*
X42620185Y-64339482D01*
X42625000Y-64437499D01*
X42625000Y-78437501D01*
X42620185Y-78535518D01*
X42605785Y-78632591D01*
X42581940Y-78727785D01*
X42548880Y-78820184D01*
X42506921Y-78908897D01*
X42456470Y-78993071D01*
X42398011Y-79071894D01*
X42332107Y-79144607D01*
X42259394Y-79210511D01*
X42180571Y-79268970D01*
X42096397Y-79319421D01*
X42007684Y-79361380D01*
X41915285Y-79394440D01*
X41820091Y-79418285D01*
X41723018Y-79432685D01*
X41625001Y-79437500D01*
X40624999Y-79437500D01*
X40526982Y-79432685D01*
X40429909Y-79418285D01*
X40334715Y-79394440D01*
X40242316Y-79361380D01*
X40153603Y-79319421D01*
X40069429Y-79268970D01*
X39990606Y-79210511D01*
X39917893Y-79144607D01*
X39851989Y-79071894D01*
X39793530Y-78993071D01*
X39743079Y-78908897D01*
X39701120Y-78820184D01*
X39668060Y-78727785D01*
X39644215Y-78632591D01*
X39629815Y-78535518D01*
X39625000Y-78437501D01*
X39625000Y-64437499D01*
X39629815Y-64339482D01*
X39644215Y-64242409D01*
X39668060Y-64147215D01*
X39701120Y-64054816D01*
X39743079Y-63966103D01*
X39793530Y-63881929D01*
X39851989Y-63803106D01*
X39917893Y-63730393D01*
X39990606Y-63664489D01*
X40069429Y-63606030D01*
X40153603Y-63555579D01*
X40242316Y-63513620D01*
X40334715Y-63480560D01*
X40429909Y-63456715D01*
X40526982Y-63442315D01*
X40624999Y-63437500D01*
X41625001Y-63437500D01*
X41723018Y-63442315D01*
X41723018Y-63442315D01*
G37*
D11*
X41125000Y-71437500D03*
G04 #@! TD*
D10*
G04 #@! TO.N,*
G04 #@! TO.C,REF\002A\002A*
G36*
X130923018Y-100254815D02*
X131020091Y-100269215D01*
X131115285Y-100293060D01*
X131207684Y-100326120D01*
X131296397Y-100368079D01*
X131380571Y-100418530D01*
X131459394Y-100476989D01*
X131532107Y-100542893D01*
X131598011Y-100615606D01*
X131656470Y-100694429D01*
X131706921Y-100778603D01*
X131748880Y-100867316D01*
X131781940Y-100959715D01*
X131805785Y-101054909D01*
X131820185Y-101151982D01*
X131825000Y-101249999D01*
X131825000Y-102250001D01*
X131820185Y-102348018D01*
X131805785Y-102445091D01*
X131781940Y-102540285D01*
X131748880Y-102632684D01*
X131706921Y-102721397D01*
X131656470Y-102805571D01*
X131598011Y-102884394D01*
X131532107Y-102957107D01*
X131459394Y-103023011D01*
X131380571Y-103081470D01*
X131296397Y-103131921D01*
X131207684Y-103173880D01*
X131115285Y-103206940D01*
X131020091Y-103230785D01*
X130923018Y-103245185D01*
X130825001Y-103250000D01*
X116824999Y-103250000D01*
X116726982Y-103245185D01*
X116629909Y-103230785D01*
X116534715Y-103206940D01*
X116442316Y-103173880D01*
X116353603Y-103131921D01*
X116269429Y-103081470D01*
X116190606Y-103023011D01*
X116117893Y-102957107D01*
X116051989Y-102884394D01*
X115993530Y-102805571D01*
X115943079Y-102721397D01*
X115901120Y-102632684D01*
X115868060Y-102540285D01*
X115844215Y-102445091D01*
X115829815Y-102348018D01*
X115825000Y-102250001D01*
X115825000Y-101249999D01*
X115829815Y-101151982D01*
X115844215Y-101054909D01*
X115868060Y-100959715D01*
X115901120Y-100867316D01*
X115943079Y-100778603D01*
X115993530Y-100694429D01*
X116051989Y-100615606D01*
X116117893Y-100542893D01*
X116190606Y-100476989D01*
X116269429Y-100418530D01*
X116353603Y-100368079D01*
X116442316Y-100326120D01*
X116534715Y-100293060D01*
X116629909Y-100269215D01*
X116726982Y-100254815D01*
X116824999Y-100250000D01*
X130825001Y-100250000D01*
X130923018Y-100254815D01*
X130923018Y-100254815D01*
G37*
D11*
X123825000Y-101750000D03*
D10*
G36*
X130923018Y-87254815D02*
X131020091Y-87269215D01*
X131115285Y-87293060D01*
X131207684Y-87326120D01*
X131296397Y-87368079D01*
X131380571Y-87418530D01*
X131459394Y-87476989D01*
X131532107Y-87542893D01*
X131598011Y-87615606D01*
X131656470Y-87694429D01*
X131706921Y-87778603D01*
X131748880Y-87867316D01*
X131781940Y-87959715D01*
X131805785Y-88054909D01*
X131820185Y-88151982D01*
X131825000Y-88249999D01*
X131825000Y-89250001D01*
X131820185Y-89348018D01*
X131805785Y-89445091D01*
X131781940Y-89540285D01*
X131748880Y-89632684D01*
X131706921Y-89721397D01*
X131656470Y-89805571D01*
X131598011Y-89884394D01*
X131532107Y-89957107D01*
X131459394Y-90023011D01*
X131380571Y-90081470D01*
X131296397Y-90131921D01*
X131207684Y-90173880D01*
X131115285Y-90206940D01*
X131020091Y-90230785D01*
X130923018Y-90245185D01*
X130825001Y-90250000D01*
X116824999Y-90250000D01*
X116726982Y-90245185D01*
X116629909Y-90230785D01*
X116534715Y-90206940D01*
X116442316Y-90173880D01*
X116353603Y-90131921D01*
X116269429Y-90081470D01*
X116190606Y-90023011D01*
X116117893Y-89957107D01*
X116051989Y-89884394D01*
X115993530Y-89805571D01*
X115943079Y-89721397D01*
X115901120Y-89632684D01*
X115868060Y-89540285D01*
X115844215Y-89445091D01*
X115829815Y-89348018D01*
X115825000Y-89250001D01*
X115825000Y-88249999D01*
X115829815Y-88151982D01*
X115844215Y-88054909D01*
X115868060Y-87959715D01*
X115901120Y-87867316D01*
X115943079Y-87778603D01*
X115993530Y-87694429D01*
X116051989Y-87615606D01*
X116117893Y-87542893D01*
X116190606Y-87476989D01*
X116269429Y-87418530D01*
X116353603Y-87368079D01*
X116442316Y-87326120D01*
X116534715Y-87293060D01*
X116629909Y-87269215D01*
X116726982Y-87254815D01*
X116824999Y-87250000D01*
X130825001Y-87250000D01*
X130923018Y-87254815D01*
X130923018Y-87254815D01*
G37*
D11*
X123825000Y-88750000D03*
D10*
G36*
X130923018Y-87254815D02*
X131020091Y-87269215D01*
X131115285Y-87293060D01*
X131207684Y-87326120D01*
X131296397Y-87368079D01*
X131380571Y-87418530D01*
X131459394Y-87476989D01*
X131532107Y-87542893D01*
X131598011Y-87615606D01*
X131656470Y-87694429D01*
X131706921Y-87778603D01*
X131748880Y-87867316D01*
X131781940Y-87959715D01*
X131805785Y-88054909D01*
X131820185Y-88151982D01*
X131825000Y-88249999D01*
X131825000Y-102250001D01*
X131820185Y-102348018D01*
X131805785Y-102445091D01*
X131781940Y-102540285D01*
X131748880Y-102632684D01*
X131706921Y-102721397D01*
X131656470Y-102805571D01*
X131598011Y-102884394D01*
X131532107Y-102957107D01*
X131459394Y-103023011D01*
X131380571Y-103081470D01*
X131296397Y-103131921D01*
X131207684Y-103173880D01*
X131115285Y-103206940D01*
X131020091Y-103230785D01*
X130923018Y-103245185D01*
X130825001Y-103250000D01*
X129824999Y-103250000D01*
X129726982Y-103245185D01*
X129629909Y-103230785D01*
X129534715Y-103206940D01*
X129442316Y-103173880D01*
X129353603Y-103131921D01*
X129269429Y-103081470D01*
X129190606Y-103023011D01*
X129117893Y-102957107D01*
X129051989Y-102884394D01*
X128993530Y-102805571D01*
X128943079Y-102721397D01*
X128901120Y-102632684D01*
X128868060Y-102540285D01*
X128844215Y-102445091D01*
X128829815Y-102348018D01*
X128825000Y-102250001D01*
X128825000Y-88249999D01*
X128829815Y-88151982D01*
X128844215Y-88054909D01*
X128868060Y-87959715D01*
X128901120Y-87867316D01*
X128943079Y-87778603D01*
X128993530Y-87694429D01*
X129051989Y-87615606D01*
X129117893Y-87542893D01*
X129190606Y-87476989D01*
X129269429Y-87418530D01*
X129353603Y-87368079D01*
X129442316Y-87326120D01*
X129534715Y-87293060D01*
X129629909Y-87269215D01*
X129726982Y-87254815D01*
X129824999Y-87250000D01*
X130825001Y-87250000D01*
X130923018Y-87254815D01*
X130923018Y-87254815D01*
G37*
D11*
X130325000Y-95250000D03*
D10*
G36*
X117923018Y-87254815D02*
X118020091Y-87269215D01*
X118115285Y-87293060D01*
X118207684Y-87326120D01*
X118296397Y-87368079D01*
X118380571Y-87418530D01*
X118459394Y-87476989D01*
X118532107Y-87542893D01*
X118598011Y-87615606D01*
X118656470Y-87694429D01*
X118706921Y-87778603D01*
X118748880Y-87867316D01*
X118781940Y-87959715D01*
X118805785Y-88054909D01*
X118820185Y-88151982D01*
X118825000Y-88249999D01*
X118825000Y-102250001D01*
X118820185Y-102348018D01*
X118805785Y-102445091D01*
X118781940Y-102540285D01*
X118748880Y-102632684D01*
X118706921Y-102721397D01*
X118656470Y-102805571D01*
X118598011Y-102884394D01*
X118532107Y-102957107D01*
X118459394Y-103023011D01*
X118380571Y-103081470D01*
X118296397Y-103131921D01*
X118207684Y-103173880D01*
X118115285Y-103206940D01*
X118020091Y-103230785D01*
X117923018Y-103245185D01*
X117825001Y-103250000D01*
X116824999Y-103250000D01*
X116726982Y-103245185D01*
X116629909Y-103230785D01*
X116534715Y-103206940D01*
X116442316Y-103173880D01*
X116353603Y-103131921D01*
X116269429Y-103081470D01*
X116190606Y-103023011D01*
X116117893Y-102957107D01*
X116051989Y-102884394D01*
X115993530Y-102805571D01*
X115943079Y-102721397D01*
X115901120Y-102632684D01*
X115868060Y-102540285D01*
X115844215Y-102445091D01*
X115829815Y-102348018D01*
X115825000Y-102250001D01*
X115825000Y-88249999D01*
X115829815Y-88151982D01*
X115844215Y-88054909D01*
X115868060Y-87959715D01*
X115901120Y-87867316D01*
X115943079Y-87778603D01*
X115993530Y-87694429D01*
X116051989Y-87615606D01*
X116117893Y-87542893D01*
X116190606Y-87476989D01*
X116269429Y-87418530D01*
X116353603Y-87368079D01*
X116442316Y-87326120D01*
X116534715Y-87293060D01*
X116629909Y-87269215D01*
X116726982Y-87254815D01*
X116824999Y-87250000D01*
X117825001Y-87250000D01*
X117923018Y-87254815D01*
X117923018Y-87254815D01*
G37*
D11*
X117325000Y-95250000D03*
G04 #@! TD*
D10*
G04 #@! TO.N,*
G04 #@! TO.C,REF\002A\002A*
G36*
X111873018Y-87254815D02*
X111970091Y-87269215D01*
X112065285Y-87293060D01*
X112157684Y-87326120D01*
X112246397Y-87368079D01*
X112330571Y-87418530D01*
X112409394Y-87476989D01*
X112482107Y-87542893D01*
X112548011Y-87615606D01*
X112606470Y-87694429D01*
X112656921Y-87778603D01*
X112698880Y-87867316D01*
X112731940Y-87959715D01*
X112755785Y-88054909D01*
X112770185Y-88151982D01*
X112775000Y-88249999D01*
X112775000Y-89250001D01*
X112770185Y-89348018D01*
X112755785Y-89445091D01*
X112731940Y-89540285D01*
X112698880Y-89632684D01*
X112656921Y-89721397D01*
X112606470Y-89805571D01*
X112548011Y-89884394D01*
X112482107Y-89957107D01*
X112409394Y-90023011D01*
X112330571Y-90081470D01*
X112246397Y-90131921D01*
X112157684Y-90173880D01*
X112065285Y-90206940D01*
X111970091Y-90230785D01*
X111873018Y-90245185D01*
X111775001Y-90250000D01*
X97774999Y-90250000D01*
X97676982Y-90245185D01*
X97579909Y-90230785D01*
X97484715Y-90206940D01*
X97392316Y-90173880D01*
X97303603Y-90131921D01*
X97219429Y-90081470D01*
X97140606Y-90023011D01*
X97067893Y-89957107D01*
X97001989Y-89884394D01*
X96943530Y-89805571D01*
X96893079Y-89721397D01*
X96851120Y-89632684D01*
X96818060Y-89540285D01*
X96794215Y-89445091D01*
X96779815Y-89348018D01*
X96775000Y-89250001D01*
X96775000Y-88249999D01*
X96779815Y-88151982D01*
X96794215Y-88054909D01*
X96818060Y-87959715D01*
X96851120Y-87867316D01*
X96893079Y-87778603D01*
X96943530Y-87694429D01*
X97001989Y-87615606D01*
X97067893Y-87542893D01*
X97140606Y-87476989D01*
X97219429Y-87418530D01*
X97303603Y-87368079D01*
X97392316Y-87326120D01*
X97484715Y-87293060D01*
X97579909Y-87269215D01*
X97676982Y-87254815D01*
X97774999Y-87250000D01*
X111775001Y-87250000D01*
X111873018Y-87254815D01*
X111873018Y-87254815D01*
G37*
D11*
X104775000Y-88750000D03*
D10*
G36*
X111873018Y-100254815D02*
X111970091Y-100269215D01*
X112065285Y-100293060D01*
X112157684Y-100326120D01*
X112246397Y-100368079D01*
X112330571Y-100418530D01*
X112409394Y-100476989D01*
X112482107Y-100542893D01*
X112548011Y-100615606D01*
X112606470Y-100694429D01*
X112656921Y-100778603D01*
X112698880Y-100867316D01*
X112731940Y-100959715D01*
X112755785Y-101054909D01*
X112770185Y-101151982D01*
X112775000Y-101249999D01*
X112775000Y-102250001D01*
X112770185Y-102348018D01*
X112755785Y-102445091D01*
X112731940Y-102540285D01*
X112698880Y-102632684D01*
X112656921Y-102721397D01*
X112606470Y-102805571D01*
X112548011Y-102884394D01*
X112482107Y-102957107D01*
X112409394Y-103023011D01*
X112330571Y-103081470D01*
X112246397Y-103131921D01*
X112157684Y-103173880D01*
X112065285Y-103206940D01*
X111970091Y-103230785D01*
X111873018Y-103245185D01*
X111775001Y-103250000D01*
X97774999Y-103250000D01*
X97676982Y-103245185D01*
X97579909Y-103230785D01*
X97484715Y-103206940D01*
X97392316Y-103173880D01*
X97303603Y-103131921D01*
X97219429Y-103081470D01*
X97140606Y-103023011D01*
X97067893Y-102957107D01*
X97001989Y-102884394D01*
X96943530Y-102805571D01*
X96893079Y-102721397D01*
X96851120Y-102632684D01*
X96818060Y-102540285D01*
X96794215Y-102445091D01*
X96779815Y-102348018D01*
X96775000Y-102250001D01*
X96775000Y-101249999D01*
X96779815Y-101151982D01*
X96794215Y-101054909D01*
X96818060Y-100959715D01*
X96851120Y-100867316D01*
X96893079Y-100778603D01*
X96943530Y-100694429D01*
X97001989Y-100615606D01*
X97067893Y-100542893D01*
X97140606Y-100476989D01*
X97219429Y-100418530D01*
X97303603Y-100368079D01*
X97392316Y-100326120D01*
X97484715Y-100293060D01*
X97579909Y-100269215D01*
X97676982Y-100254815D01*
X97774999Y-100250000D01*
X111775001Y-100250000D01*
X111873018Y-100254815D01*
X111873018Y-100254815D01*
G37*
D11*
X104775000Y-101750000D03*
D10*
G36*
X111873018Y-87254815D02*
X111970091Y-87269215D01*
X112065285Y-87293060D01*
X112157684Y-87326120D01*
X112246397Y-87368079D01*
X112330571Y-87418530D01*
X112409394Y-87476989D01*
X112482107Y-87542893D01*
X112548011Y-87615606D01*
X112606470Y-87694429D01*
X112656921Y-87778603D01*
X112698880Y-87867316D01*
X112731940Y-87959715D01*
X112755785Y-88054909D01*
X112770185Y-88151982D01*
X112775000Y-88249999D01*
X112775000Y-102250001D01*
X112770185Y-102348018D01*
X112755785Y-102445091D01*
X112731940Y-102540285D01*
X112698880Y-102632684D01*
X112656921Y-102721397D01*
X112606470Y-102805571D01*
X112548011Y-102884394D01*
X112482107Y-102957107D01*
X112409394Y-103023011D01*
X112330571Y-103081470D01*
X112246397Y-103131921D01*
X112157684Y-103173880D01*
X112065285Y-103206940D01*
X111970091Y-103230785D01*
X111873018Y-103245185D01*
X111775001Y-103250000D01*
X110774999Y-103250000D01*
X110676982Y-103245185D01*
X110579909Y-103230785D01*
X110484715Y-103206940D01*
X110392316Y-103173880D01*
X110303603Y-103131921D01*
X110219429Y-103081470D01*
X110140606Y-103023011D01*
X110067893Y-102957107D01*
X110001989Y-102884394D01*
X109943530Y-102805571D01*
X109893079Y-102721397D01*
X109851120Y-102632684D01*
X109818060Y-102540285D01*
X109794215Y-102445091D01*
X109779815Y-102348018D01*
X109775000Y-102250001D01*
X109775000Y-88249999D01*
X109779815Y-88151982D01*
X109794215Y-88054909D01*
X109818060Y-87959715D01*
X109851120Y-87867316D01*
X109893079Y-87778603D01*
X109943530Y-87694429D01*
X110001989Y-87615606D01*
X110067893Y-87542893D01*
X110140606Y-87476989D01*
X110219429Y-87418530D01*
X110303603Y-87368079D01*
X110392316Y-87326120D01*
X110484715Y-87293060D01*
X110579909Y-87269215D01*
X110676982Y-87254815D01*
X110774999Y-87250000D01*
X111775001Y-87250000D01*
X111873018Y-87254815D01*
X111873018Y-87254815D01*
G37*
D11*
X111275000Y-95250000D03*
D10*
G36*
X98873018Y-87254815D02*
X98970091Y-87269215D01*
X99065285Y-87293060D01*
X99157684Y-87326120D01*
X99246397Y-87368079D01*
X99330571Y-87418530D01*
X99409394Y-87476989D01*
X99482107Y-87542893D01*
X99548011Y-87615606D01*
X99606470Y-87694429D01*
X99656921Y-87778603D01*
X99698880Y-87867316D01*
X99731940Y-87959715D01*
X99755785Y-88054909D01*
X99770185Y-88151982D01*
X99775000Y-88249999D01*
X99775000Y-102250001D01*
X99770185Y-102348018D01*
X99755785Y-102445091D01*
X99731940Y-102540285D01*
X99698880Y-102632684D01*
X99656921Y-102721397D01*
X99606470Y-102805571D01*
X99548011Y-102884394D01*
X99482107Y-102957107D01*
X99409394Y-103023011D01*
X99330571Y-103081470D01*
X99246397Y-103131921D01*
X99157684Y-103173880D01*
X99065285Y-103206940D01*
X98970091Y-103230785D01*
X98873018Y-103245185D01*
X98775001Y-103250000D01*
X97774999Y-103250000D01*
X97676982Y-103245185D01*
X97579909Y-103230785D01*
X97484715Y-103206940D01*
X97392316Y-103173880D01*
X97303603Y-103131921D01*
X97219429Y-103081470D01*
X97140606Y-103023011D01*
X97067893Y-102957107D01*
X97001989Y-102884394D01*
X96943530Y-102805571D01*
X96893079Y-102721397D01*
X96851120Y-102632684D01*
X96818060Y-102540285D01*
X96794215Y-102445091D01*
X96779815Y-102348018D01*
X96775000Y-102250001D01*
X96775000Y-88249999D01*
X96779815Y-88151982D01*
X96794215Y-88054909D01*
X96818060Y-87959715D01*
X96851120Y-87867316D01*
X96893079Y-87778603D01*
X96943530Y-87694429D01*
X97001989Y-87615606D01*
X97067893Y-87542893D01*
X97140606Y-87476989D01*
X97219429Y-87418530D01*
X97303603Y-87368079D01*
X97392316Y-87326120D01*
X97484715Y-87293060D01*
X97579909Y-87269215D01*
X97676982Y-87254815D01*
X97774999Y-87250000D01*
X98775001Y-87250000D01*
X98873018Y-87254815D01*
X98873018Y-87254815D01*
G37*
D11*
X98275000Y-95250000D03*
G04 #@! TD*
D10*
G04 #@! TO.N,*
G04 #@! TO.C,REF\002A\002A*
G36*
X92823018Y-100254815D02*
X92920091Y-100269215D01*
X93015285Y-100293060D01*
X93107684Y-100326120D01*
X93196397Y-100368079D01*
X93280571Y-100418530D01*
X93359394Y-100476989D01*
X93432107Y-100542893D01*
X93498011Y-100615606D01*
X93556470Y-100694429D01*
X93606921Y-100778603D01*
X93648880Y-100867316D01*
X93681940Y-100959715D01*
X93705785Y-101054909D01*
X93720185Y-101151982D01*
X93725000Y-101249999D01*
X93725000Y-102250001D01*
X93720185Y-102348018D01*
X93705785Y-102445091D01*
X93681940Y-102540285D01*
X93648880Y-102632684D01*
X93606921Y-102721397D01*
X93556470Y-102805571D01*
X93498011Y-102884394D01*
X93432107Y-102957107D01*
X93359394Y-103023011D01*
X93280571Y-103081470D01*
X93196397Y-103131921D01*
X93107684Y-103173880D01*
X93015285Y-103206940D01*
X92920091Y-103230785D01*
X92823018Y-103245185D01*
X92725001Y-103250000D01*
X78724999Y-103250000D01*
X78626982Y-103245185D01*
X78529909Y-103230785D01*
X78434715Y-103206940D01*
X78342316Y-103173880D01*
X78253603Y-103131921D01*
X78169429Y-103081470D01*
X78090606Y-103023011D01*
X78017893Y-102957107D01*
X77951989Y-102884394D01*
X77893530Y-102805571D01*
X77843079Y-102721397D01*
X77801120Y-102632684D01*
X77768060Y-102540285D01*
X77744215Y-102445091D01*
X77729815Y-102348018D01*
X77725000Y-102250001D01*
X77725000Y-101249999D01*
X77729815Y-101151982D01*
X77744215Y-101054909D01*
X77768060Y-100959715D01*
X77801120Y-100867316D01*
X77843079Y-100778603D01*
X77893530Y-100694429D01*
X77951989Y-100615606D01*
X78017893Y-100542893D01*
X78090606Y-100476989D01*
X78169429Y-100418530D01*
X78253603Y-100368079D01*
X78342316Y-100326120D01*
X78434715Y-100293060D01*
X78529909Y-100269215D01*
X78626982Y-100254815D01*
X78724999Y-100250000D01*
X92725001Y-100250000D01*
X92823018Y-100254815D01*
X92823018Y-100254815D01*
G37*
D11*
X85725000Y-101750000D03*
D10*
G36*
X92823018Y-87254815D02*
X92920091Y-87269215D01*
X93015285Y-87293060D01*
X93107684Y-87326120D01*
X93196397Y-87368079D01*
X93280571Y-87418530D01*
X93359394Y-87476989D01*
X93432107Y-87542893D01*
X93498011Y-87615606D01*
X93556470Y-87694429D01*
X93606921Y-87778603D01*
X93648880Y-87867316D01*
X93681940Y-87959715D01*
X93705785Y-88054909D01*
X93720185Y-88151982D01*
X93725000Y-88249999D01*
X93725000Y-89250001D01*
X93720185Y-89348018D01*
X93705785Y-89445091D01*
X93681940Y-89540285D01*
X93648880Y-89632684D01*
X93606921Y-89721397D01*
X93556470Y-89805571D01*
X93498011Y-89884394D01*
X93432107Y-89957107D01*
X93359394Y-90023011D01*
X93280571Y-90081470D01*
X93196397Y-90131921D01*
X93107684Y-90173880D01*
X93015285Y-90206940D01*
X92920091Y-90230785D01*
X92823018Y-90245185D01*
X92725001Y-90250000D01*
X78724999Y-90250000D01*
X78626982Y-90245185D01*
X78529909Y-90230785D01*
X78434715Y-90206940D01*
X78342316Y-90173880D01*
X78253603Y-90131921D01*
X78169429Y-90081470D01*
X78090606Y-90023011D01*
X78017893Y-89957107D01*
X77951989Y-89884394D01*
X77893530Y-89805571D01*
X77843079Y-89721397D01*
X77801120Y-89632684D01*
X77768060Y-89540285D01*
X77744215Y-89445091D01*
X77729815Y-89348018D01*
X77725000Y-89250001D01*
X77725000Y-88249999D01*
X77729815Y-88151982D01*
X77744215Y-88054909D01*
X77768060Y-87959715D01*
X77801120Y-87867316D01*
X77843079Y-87778603D01*
X77893530Y-87694429D01*
X77951989Y-87615606D01*
X78017893Y-87542893D01*
X78090606Y-87476989D01*
X78169429Y-87418530D01*
X78253603Y-87368079D01*
X78342316Y-87326120D01*
X78434715Y-87293060D01*
X78529909Y-87269215D01*
X78626982Y-87254815D01*
X78724999Y-87250000D01*
X92725001Y-87250000D01*
X92823018Y-87254815D01*
X92823018Y-87254815D01*
G37*
D11*
X85725000Y-88750000D03*
D10*
G36*
X92823018Y-87254815D02*
X92920091Y-87269215D01*
X93015285Y-87293060D01*
X93107684Y-87326120D01*
X93196397Y-87368079D01*
X93280571Y-87418530D01*
X93359394Y-87476989D01*
X93432107Y-87542893D01*
X93498011Y-87615606D01*
X93556470Y-87694429D01*
X93606921Y-87778603D01*
X93648880Y-87867316D01*
X93681940Y-87959715D01*
X93705785Y-88054909D01*
X93720185Y-88151982D01*
X93725000Y-88249999D01*
X93725000Y-102250001D01*
X93720185Y-102348018D01*
X93705785Y-102445091D01*
X93681940Y-102540285D01*
X93648880Y-102632684D01*
X93606921Y-102721397D01*
X93556470Y-102805571D01*
X93498011Y-102884394D01*
X93432107Y-102957107D01*
X93359394Y-103023011D01*
X93280571Y-103081470D01*
X93196397Y-103131921D01*
X93107684Y-103173880D01*
X93015285Y-103206940D01*
X92920091Y-103230785D01*
X92823018Y-103245185D01*
X92725001Y-103250000D01*
X91724999Y-103250000D01*
X91626982Y-103245185D01*
X91529909Y-103230785D01*
X91434715Y-103206940D01*
X91342316Y-103173880D01*
X91253603Y-103131921D01*
X91169429Y-103081470D01*
X91090606Y-103023011D01*
X91017893Y-102957107D01*
X90951989Y-102884394D01*
X90893530Y-102805571D01*
X90843079Y-102721397D01*
X90801120Y-102632684D01*
X90768060Y-102540285D01*
X90744215Y-102445091D01*
X90729815Y-102348018D01*
X90725000Y-102250001D01*
X90725000Y-88249999D01*
X90729815Y-88151982D01*
X90744215Y-88054909D01*
X90768060Y-87959715D01*
X90801120Y-87867316D01*
X90843079Y-87778603D01*
X90893530Y-87694429D01*
X90951989Y-87615606D01*
X91017893Y-87542893D01*
X91090606Y-87476989D01*
X91169429Y-87418530D01*
X91253603Y-87368079D01*
X91342316Y-87326120D01*
X91434715Y-87293060D01*
X91529909Y-87269215D01*
X91626982Y-87254815D01*
X91724999Y-87250000D01*
X92725001Y-87250000D01*
X92823018Y-87254815D01*
X92823018Y-87254815D01*
G37*
D11*
X92225000Y-95250000D03*
D10*
G36*
X79823018Y-87254815D02*
X79920091Y-87269215D01*
X80015285Y-87293060D01*
X80107684Y-87326120D01*
X80196397Y-87368079D01*
X80280571Y-87418530D01*
X80359394Y-87476989D01*
X80432107Y-87542893D01*
X80498011Y-87615606D01*
X80556470Y-87694429D01*
X80606921Y-87778603D01*
X80648880Y-87867316D01*
X80681940Y-87959715D01*
X80705785Y-88054909D01*
X80720185Y-88151982D01*
X80725000Y-88249999D01*
X80725000Y-102250001D01*
X80720185Y-102348018D01*
X80705785Y-102445091D01*
X80681940Y-102540285D01*
X80648880Y-102632684D01*
X80606921Y-102721397D01*
X80556470Y-102805571D01*
X80498011Y-102884394D01*
X80432107Y-102957107D01*
X80359394Y-103023011D01*
X80280571Y-103081470D01*
X80196397Y-103131921D01*
X80107684Y-103173880D01*
X80015285Y-103206940D01*
X79920091Y-103230785D01*
X79823018Y-103245185D01*
X79725001Y-103250000D01*
X78724999Y-103250000D01*
X78626982Y-103245185D01*
X78529909Y-103230785D01*
X78434715Y-103206940D01*
X78342316Y-103173880D01*
X78253603Y-103131921D01*
X78169429Y-103081470D01*
X78090606Y-103023011D01*
X78017893Y-102957107D01*
X77951989Y-102884394D01*
X77893530Y-102805571D01*
X77843079Y-102721397D01*
X77801120Y-102632684D01*
X77768060Y-102540285D01*
X77744215Y-102445091D01*
X77729815Y-102348018D01*
X77725000Y-102250001D01*
X77725000Y-88249999D01*
X77729815Y-88151982D01*
X77744215Y-88054909D01*
X77768060Y-87959715D01*
X77801120Y-87867316D01*
X77843079Y-87778603D01*
X77893530Y-87694429D01*
X77951989Y-87615606D01*
X78017893Y-87542893D01*
X78090606Y-87476989D01*
X78169429Y-87418530D01*
X78253603Y-87368079D01*
X78342316Y-87326120D01*
X78434715Y-87293060D01*
X78529909Y-87269215D01*
X78626982Y-87254815D01*
X78724999Y-87250000D01*
X79725001Y-87250000D01*
X79823018Y-87254815D01*
X79823018Y-87254815D01*
G37*
D11*
X79225000Y-95250000D03*
G04 #@! TD*
D10*
G04 #@! TO.N,*
G04 #@! TO.C,REF\002A\002A*
G36*
X73773018Y-100254815D02*
X73870091Y-100269215D01*
X73965285Y-100293060D01*
X74057684Y-100326120D01*
X74146397Y-100368079D01*
X74230571Y-100418530D01*
X74309394Y-100476989D01*
X74382107Y-100542893D01*
X74448011Y-100615606D01*
X74506470Y-100694429D01*
X74556921Y-100778603D01*
X74598880Y-100867316D01*
X74631940Y-100959715D01*
X74655785Y-101054909D01*
X74670185Y-101151982D01*
X74675000Y-101249999D01*
X74675000Y-102250001D01*
X74670185Y-102348018D01*
X74655785Y-102445091D01*
X74631940Y-102540285D01*
X74598880Y-102632684D01*
X74556921Y-102721397D01*
X74506470Y-102805571D01*
X74448011Y-102884394D01*
X74382107Y-102957107D01*
X74309394Y-103023011D01*
X74230571Y-103081470D01*
X74146397Y-103131921D01*
X74057684Y-103173880D01*
X73965285Y-103206940D01*
X73870091Y-103230785D01*
X73773018Y-103245185D01*
X73675001Y-103250000D01*
X59674999Y-103250000D01*
X59576982Y-103245185D01*
X59479909Y-103230785D01*
X59384715Y-103206940D01*
X59292316Y-103173880D01*
X59203603Y-103131921D01*
X59119429Y-103081470D01*
X59040606Y-103023011D01*
X58967893Y-102957107D01*
X58901989Y-102884394D01*
X58843530Y-102805571D01*
X58793079Y-102721397D01*
X58751120Y-102632684D01*
X58718060Y-102540285D01*
X58694215Y-102445091D01*
X58679815Y-102348018D01*
X58675000Y-102250001D01*
X58675000Y-101249999D01*
X58679815Y-101151982D01*
X58694215Y-101054909D01*
X58718060Y-100959715D01*
X58751120Y-100867316D01*
X58793079Y-100778603D01*
X58843530Y-100694429D01*
X58901989Y-100615606D01*
X58967893Y-100542893D01*
X59040606Y-100476989D01*
X59119429Y-100418530D01*
X59203603Y-100368079D01*
X59292316Y-100326120D01*
X59384715Y-100293060D01*
X59479909Y-100269215D01*
X59576982Y-100254815D01*
X59674999Y-100250000D01*
X73675001Y-100250000D01*
X73773018Y-100254815D01*
X73773018Y-100254815D01*
G37*
D11*
X66675000Y-101750000D03*
D10*
G36*
X73773018Y-87254815D02*
X73870091Y-87269215D01*
X73965285Y-87293060D01*
X74057684Y-87326120D01*
X74146397Y-87368079D01*
X74230571Y-87418530D01*
X74309394Y-87476989D01*
X74382107Y-87542893D01*
X74448011Y-87615606D01*
X74506470Y-87694429D01*
X74556921Y-87778603D01*
X74598880Y-87867316D01*
X74631940Y-87959715D01*
X74655785Y-88054909D01*
X74670185Y-88151982D01*
X74675000Y-88249999D01*
X74675000Y-89250001D01*
X74670185Y-89348018D01*
X74655785Y-89445091D01*
X74631940Y-89540285D01*
X74598880Y-89632684D01*
X74556921Y-89721397D01*
X74506470Y-89805571D01*
X74448011Y-89884394D01*
X74382107Y-89957107D01*
X74309394Y-90023011D01*
X74230571Y-90081470D01*
X74146397Y-90131921D01*
X74057684Y-90173880D01*
X73965285Y-90206940D01*
X73870091Y-90230785D01*
X73773018Y-90245185D01*
X73675001Y-90250000D01*
X59674999Y-90250000D01*
X59576982Y-90245185D01*
X59479909Y-90230785D01*
X59384715Y-90206940D01*
X59292316Y-90173880D01*
X59203603Y-90131921D01*
X59119429Y-90081470D01*
X59040606Y-90023011D01*
X58967893Y-89957107D01*
X58901989Y-89884394D01*
X58843530Y-89805571D01*
X58793079Y-89721397D01*
X58751120Y-89632684D01*
X58718060Y-89540285D01*
X58694215Y-89445091D01*
X58679815Y-89348018D01*
X58675000Y-89250001D01*
X58675000Y-88249999D01*
X58679815Y-88151982D01*
X58694215Y-88054909D01*
X58718060Y-87959715D01*
X58751120Y-87867316D01*
X58793079Y-87778603D01*
X58843530Y-87694429D01*
X58901989Y-87615606D01*
X58967893Y-87542893D01*
X59040606Y-87476989D01*
X59119429Y-87418530D01*
X59203603Y-87368079D01*
X59292316Y-87326120D01*
X59384715Y-87293060D01*
X59479909Y-87269215D01*
X59576982Y-87254815D01*
X59674999Y-87250000D01*
X73675001Y-87250000D01*
X73773018Y-87254815D01*
X73773018Y-87254815D01*
G37*
D11*
X66675000Y-88750000D03*
D10*
G36*
X73773018Y-87254815D02*
X73870091Y-87269215D01*
X73965285Y-87293060D01*
X74057684Y-87326120D01*
X74146397Y-87368079D01*
X74230571Y-87418530D01*
X74309394Y-87476989D01*
X74382107Y-87542893D01*
X74448011Y-87615606D01*
X74506470Y-87694429D01*
X74556921Y-87778603D01*
X74598880Y-87867316D01*
X74631940Y-87959715D01*
X74655785Y-88054909D01*
X74670185Y-88151982D01*
X74675000Y-88249999D01*
X74675000Y-102250001D01*
X74670185Y-102348018D01*
X74655785Y-102445091D01*
X74631940Y-102540285D01*
X74598880Y-102632684D01*
X74556921Y-102721397D01*
X74506470Y-102805571D01*
X74448011Y-102884394D01*
X74382107Y-102957107D01*
X74309394Y-103023011D01*
X74230571Y-103081470D01*
X74146397Y-103131921D01*
X74057684Y-103173880D01*
X73965285Y-103206940D01*
X73870091Y-103230785D01*
X73773018Y-103245185D01*
X73675001Y-103250000D01*
X72674999Y-103250000D01*
X72576982Y-103245185D01*
X72479909Y-103230785D01*
X72384715Y-103206940D01*
X72292316Y-103173880D01*
X72203603Y-103131921D01*
X72119429Y-103081470D01*
X72040606Y-103023011D01*
X71967893Y-102957107D01*
X71901989Y-102884394D01*
X71843530Y-102805571D01*
X71793079Y-102721397D01*
X71751120Y-102632684D01*
X71718060Y-102540285D01*
X71694215Y-102445091D01*
X71679815Y-102348018D01*
X71675000Y-102250001D01*
X71675000Y-88249999D01*
X71679815Y-88151982D01*
X71694215Y-88054909D01*
X71718060Y-87959715D01*
X71751120Y-87867316D01*
X71793079Y-87778603D01*
X71843530Y-87694429D01*
X71901989Y-87615606D01*
X71967893Y-87542893D01*
X72040606Y-87476989D01*
X72119429Y-87418530D01*
X72203603Y-87368079D01*
X72292316Y-87326120D01*
X72384715Y-87293060D01*
X72479909Y-87269215D01*
X72576982Y-87254815D01*
X72674999Y-87250000D01*
X73675001Y-87250000D01*
X73773018Y-87254815D01*
X73773018Y-87254815D01*
G37*
D11*
X73175000Y-95250000D03*
D10*
G36*
X60773018Y-87254815D02*
X60870091Y-87269215D01*
X60965285Y-87293060D01*
X61057684Y-87326120D01*
X61146397Y-87368079D01*
X61230571Y-87418530D01*
X61309394Y-87476989D01*
X61382107Y-87542893D01*
X61448011Y-87615606D01*
X61506470Y-87694429D01*
X61556921Y-87778603D01*
X61598880Y-87867316D01*
X61631940Y-87959715D01*
X61655785Y-88054909D01*
X61670185Y-88151982D01*
X61675000Y-88249999D01*
X61675000Y-102250001D01*
X61670185Y-102348018D01*
X61655785Y-102445091D01*
X61631940Y-102540285D01*
X61598880Y-102632684D01*
X61556921Y-102721397D01*
X61506470Y-102805571D01*
X61448011Y-102884394D01*
X61382107Y-102957107D01*
X61309394Y-103023011D01*
X61230571Y-103081470D01*
X61146397Y-103131921D01*
X61057684Y-103173880D01*
X60965285Y-103206940D01*
X60870091Y-103230785D01*
X60773018Y-103245185D01*
X60675001Y-103250000D01*
X59674999Y-103250000D01*
X59576982Y-103245185D01*
X59479909Y-103230785D01*
X59384715Y-103206940D01*
X59292316Y-103173880D01*
X59203603Y-103131921D01*
X59119429Y-103081470D01*
X59040606Y-103023011D01*
X58967893Y-102957107D01*
X58901989Y-102884394D01*
X58843530Y-102805571D01*
X58793079Y-102721397D01*
X58751120Y-102632684D01*
X58718060Y-102540285D01*
X58694215Y-102445091D01*
X58679815Y-102348018D01*
X58675000Y-102250001D01*
X58675000Y-88249999D01*
X58679815Y-88151982D01*
X58694215Y-88054909D01*
X58718060Y-87959715D01*
X58751120Y-87867316D01*
X58793079Y-87778603D01*
X58843530Y-87694429D01*
X58901989Y-87615606D01*
X58967893Y-87542893D01*
X59040606Y-87476989D01*
X59119429Y-87418530D01*
X59203603Y-87368079D01*
X59292316Y-87326120D01*
X59384715Y-87293060D01*
X59479909Y-87269215D01*
X59576982Y-87254815D01*
X59674999Y-87250000D01*
X60675001Y-87250000D01*
X60773018Y-87254815D01*
X60773018Y-87254815D01*
G37*
D11*
X60175000Y-95250000D03*
G04 #@! TD*
D10*
G04 #@! TO.N,*
G04 #@! TO.C,REF\002A\002A*
G36*
X54723018Y-100254815D02*
X54820091Y-100269215D01*
X54915285Y-100293060D01*
X55007684Y-100326120D01*
X55096397Y-100368079D01*
X55180571Y-100418530D01*
X55259394Y-100476989D01*
X55332107Y-100542893D01*
X55398011Y-100615606D01*
X55456470Y-100694429D01*
X55506921Y-100778603D01*
X55548880Y-100867316D01*
X55581940Y-100959715D01*
X55605785Y-101054909D01*
X55620185Y-101151982D01*
X55625000Y-101249999D01*
X55625000Y-102250001D01*
X55620185Y-102348018D01*
X55605785Y-102445091D01*
X55581940Y-102540285D01*
X55548880Y-102632684D01*
X55506921Y-102721397D01*
X55456470Y-102805571D01*
X55398011Y-102884394D01*
X55332107Y-102957107D01*
X55259394Y-103023011D01*
X55180571Y-103081470D01*
X55096397Y-103131921D01*
X55007684Y-103173880D01*
X54915285Y-103206940D01*
X54820091Y-103230785D01*
X54723018Y-103245185D01*
X54625001Y-103250000D01*
X40624999Y-103250000D01*
X40526982Y-103245185D01*
X40429909Y-103230785D01*
X40334715Y-103206940D01*
X40242316Y-103173880D01*
X40153603Y-103131921D01*
X40069429Y-103081470D01*
X39990606Y-103023011D01*
X39917893Y-102957107D01*
X39851989Y-102884394D01*
X39793530Y-102805571D01*
X39743079Y-102721397D01*
X39701120Y-102632684D01*
X39668060Y-102540285D01*
X39644215Y-102445091D01*
X39629815Y-102348018D01*
X39625000Y-102250001D01*
X39625000Y-101249999D01*
X39629815Y-101151982D01*
X39644215Y-101054909D01*
X39668060Y-100959715D01*
X39701120Y-100867316D01*
X39743079Y-100778603D01*
X39793530Y-100694429D01*
X39851989Y-100615606D01*
X39917893Y-100542893D01*
X39990606Y-100476989D01*
X40069429Y-100418530D01*
X40153603Y-100368079D01*
X40242316Y-100326120D01*
X40334715Y-100293060D01*
X40429909Y-100269215D01*
X40526982Y-100254815D01*
X40624999Y-100250000D01*
X54625001Y-100250000D01*
X54723018Y-100254815D01*
X54723018Y-100254815D01*
G37*
D11*
X47625000Y-101750000D03*
D10*
G36*
X54723018Y-87254815D02*
X54820091Y-87269215D01*
X54915285Y-87293060D01*
X55007684Y-87326120D01*
X55096397Y-87368079D01*
X55180571Y-87418530D01*
X55259394Y-87476989D01*
X55332107Y-87542893D01*
X55398011Y-87615606D01*
X55456470Y-87694429D01*
X55506921Y-87778603D01*
X55548880Y-87867316D01*
X55581940Y-87959715D01*
X55605785Y-88054909D01*
X55620185Y-88151982D01*
X55625000Y-88249999D01*
X55625000Y-89250001D01*
X55620185Y-89348018D01*
X55605785Y-89445091D01*
X55581940Y-89540285D01*
X55548880Y-89632684D01*
X55506921Y-89721397D01*
X55456470Y-89805571D01*
X55398011Y-89884394D01*
X55332107Y-89957107D01*
X55259394Y-90023011D01*
X55180571Y-90081470D01*
X55096397Y-90131921D01*
X55007684Y-90173880D01*
X54915285Y-90206940D01*
X54820091Y-90230785D01*
X54723018Y-90245185D01*
X54625001Y-90250000D01*
X40624999Y-90250000D01*
X40526982Y-90245185D01*
X40429909Y-90230785D01*
X40334715Y-90206940D01*
X40242316Y-90173880D01*
X40153603Y-90131921D01*
X40069429Y-90081470D01*
X39990606Y-90023011D01*
X39917893Y-89957107D01*
X39851989Y-89884394D01*
X39793530Y-89805571D01*
X39743079Y-89721397D01*
X39701120Y-89632684D01*
X39668060Y-89540285D01*
X39644215Y-89445091D01*
X39629815Y-89348018D01*
X39625000Y-89250001D01*
X39625000Y-88249999D01*
X39629815Y-88151982D01*
X39644215Y-88054909D01*
X39668060Y-87959715D01*
X39701120Y-87867316D01*
X39743079Y-87778603D01*
X39793530Y-87694429D01*
X39851989Y-87615606D01*
X39917893Y-87542893D01*
X39990606Y-87476989D01*
X40069429Y-87418530D01*
X40153603Y-87368079D01*
X40242316Y-87326120D01*
X40334715Y-87293060D01*
X40429909Y-87269215D01*
X40526982Y-87254815D01*
X40624999Y-87250000D01*
X54625001Y-87250000D01*
X54723018Y-87254815D01*
X54723018Y-87254815D01*
G37*
D11*
X47625000Y-88750000D03*
D10*
G36*
X54723018Y-87254815D02*
X54820091Y-87269215D01*
X54915285Y-87293060D01*
X55007684Y-87326120D01*
X55096397Y-87368079D01*
X55180571Y-87418530D01*
X55259394Y-87476989D01*
X55332107Y-87542893D01*
X55398011Y-87615606D01*
X55456470Y-87694429D01*
X55506921Y-87778603D01*
X55548880Y-87867316D01*
X55581940Y-87959715D01*
X55605785Y-88054909D01*
X55620185Y-88151982D01*
X55625000Y-88249999D01*
X55625000Y-102250001D01*
X55620185Y-102348018D01*
X55605785Y-102445091D01*
X55581940Y-102540285D01*
X55548880Y-102632684D01*
X55506921Y-102721397D01*
X55456470Y-102805571D01*
X55398011Y-102884394D01*
X55332107Y-102957107D01*
X55259394Y-103023011D01*
X55180571Y-103081470D01*
X55096397Y-103131921D01*
X55007684Y-103173880D01*
X54915285Y-103206940D01*
X54820091Y-103230785D01*
X54723018Y-103245185D01*
X54625001Y-103250000D01*
X53624999Y-103250000D01*
X53526982Y-103245185D01*
X53429909Y-103230785D01*
X53334715Y-103206940D01*
X53242316Y-103173880D01*
X53153603Y-103131921D01*
X53069429Y-103081470D01*
X52990606Y-103023011D01*
X52917893Y-102957107D01*
X52851989Y-102884394D01*
X52793530Y-102805571D01*
X52743079Y-102721397D01*
X52701120Y-102632684D01*
X52668060Y-102540285D01*
X52644215Y-102445091D01*
X52629815Y-102348018D01*
X52625000Y-102250001D01*
X52625000Y-88249999D01*
X52629815Y-88151982D01*
X52644215Y-88054909D01*
X52668060Y-87959715D01*
X52701120Y-87867316D01*
X52743079Y-87778603D01*
X52793530Y-87694429D01*
X52851989Y-87615606D01*
X52917893Y-87542893D01*
X52990606Y-87476989D01*
X53069429Y-87418530D01*
X53153603Y-87368079D01*
X53242316Y-87326120D01*
X53334715Y-87293060D01*
X53429909Y-87269215D01*
X53526982Y-87254815D01*
X53624999Y-87250000D01*
X54625001Y-87250000D01*
X54723018Y-87254815D01*
X54723018Y-87254815D01*
G37*
D11*
X54125000Y-95250000D03*
D10*
G36*
X41723018Y-87254815D02*
X41820091Y-87269215D01*
X41915285Y-87293060D01*
X42007684Y-87326120D01*
X42096397Y-87368079D01*
X42180571Y-87418530D01*
X42259394Y-87476989D01*
X42332107Y-87542893D01*
X42398011Y-87615606D01*
X42456470Y-87694429D01*
X42506921Y-87778603D01*
X42548880Y-87867316D01*
X42581940Y-87959715D01*
X42605785Y-88054909D01*
X42620185Y-88151982D01*
X42625000Y-88249999D01*
X42625000Y-102250001D01*
X42620185Y-102348018D01*
X42605785Y-102445091D01*
X42581940Y-102540285D01*
X42548880Y-102632684D01*
X42506921Y-102721397D01*
X42456470Y-102805571D01*
X42398011Y-102884394D01*
X42332107Y-102957107D01*
X42259394Y-103023011D01*
X42180571Y-103081470D01*
X42096397Y-103131921D01*
X42007684Y-103173880D01*
X41915285Y-103206940D01*
X41820091Y-103230785D01*
X41723018Y-103245185D01*
X41625001Y-103250000D01*
X40624999Y-103250000D01*
X40526982Y-103245185D01*
X40429909Y-103230785D01*
X40334715Y-103206940D01*
X40242316Y-103173880D01*
X40153603Y-103131921D01*
X40069429Y-103081470D01*
X39990606Y-103023011D01*
X39917893Y-102957107D01*
X39851989Y-102884394D01*
X39793530Y-102805571D01*
X39743079Y-102721397D01*
X39701120Y-102632684D01*
X39668060Y-102540285D01*
X39644215Y-102445091D01*
X39629815Y-102348018D01*
X39625000Y-102250001D01*
X39625000Y-88249999D01*
X39629815Y-88151982D01*
X39644215Y-88054909D01*
X39668060Y-87959715D01*
X39701120Y-87867316D01*
X39743079Y-87778603D01*
X39793530Y-87694429D01*
X39851989Y-87615606D01*
X39917893Y-87542893D01*
X39990606Y-87476989D01*
X40069429Y-87418530D01*
X40153603Y-87368079D01*
X40242316Y-87326120D01*
X40334715Y-87293060D01*
X40429909Y-87269215D01*
X40526982Y-87254815D01*
X40624999Y-87250000D01*
X41625001Y-87250000D01*
X41723018Y-87254815D01*
X41723018Y-87254815D01*
G37*
D11*
X41125000Y-95250000D03*
G04 #@! TD*
D12*
G04 #@! TO.P,REF\002A\002A,1*
G04 #@! TO.N,N/C*
X39687500Y-36512500D03*
D13*
X41337500Y-36512500D03*
X40854226Y-37679226D03*
X39687500Y-38162500D03*
X38520774Y-37679226D03*
X38037500Y-36512500D03*
X38520774Y-35345774D03*
X39687500Y-34862500D03*
X40854226Y-35345774D03*
G04 #@! TD*
D12*
G04 #@! TO.P,REF\002A\002A,1*
G04 #@! TO.N,N/C*
X131762500Y-36512500D03*
D13*
X133412500Y-36512500D03*
X132929226Y-37679226D03*
X131762500Y-38162500D03*
X130595774Y-37679226D03*
X130112500Y-36512500D03*
X130595774Y-35345774D03*
X131762500Y-34862500D03*
X132929226Y-35345774D03*
G04 #@! TD*
D12*
G04 #@! TO.P,REF\002A\002A,1*
G04 #@! TO.N,N/C*
X131762500Y-111125000D03*
D13*
X133412500Y-111125000D03*
X132929226Y-112291726D03*
X131762500Y-112775000D03*
X130595774Y-112291726D03*
X130112500Y-111125000D03*
X130595774Y-109958274D03*
X131762500Y-109475000D03*
X132929226Y-109958274D03*
G04 #@! TD*
D12*
G04 #@! TO.P,REF\002A\002A,1*
G04 #@! TO.N,N/C*
X39687500Y-111125000D03*
D13*
X41337500Y-111125000D03*
X40854226Y-112291726D03*
X39687500Y-112775000D03*
X38520774Y-112291726D03*
X38037500Y-111125000D03*
X38520774Y-109958274D03*
X39687500Y-109475000D03*
X40854226Y-109958274D03*
G04 #@! TD*
M02*
