G04 #@! TF.GenerationSoftware,KiCad,Pcbnew,(5.0.2)-1*
G04 #@! TF.CreationDate,2019-04-26T21:04:54-07:00*
G04 #@! TF.ProjectId,Summit Top,53756d6d-6974-4205-946f-702e6b696361,rev?*
G04 #@! TF.SameCoordinates,Original*
G04 #@! TF.FileFunction,Soldermask,Top*
G04 #@! TF.FilePolarity,Negative*
%FSLAX46Y46*%
G04 Gerber Fmt 4.6, Leading zero omitted, Abs format (unit mm)*
G04 Created by KiCad (PCBNEW (5.0.2)-1) date 4/26/2019 9:04:54 PM*
%MOMM*%
%LPD*%
G01*
G04 APERTURE LIST*
%ADD10C,0.400000*%
%ADD11C,0.100000*%
G04 APERTURE END LIST*
D10*
X122098809Y-106183928D02*
X122932142Y-106183928D01*
X123289285Y-107493452D02*
X122098809Y-107493452D01*
X122098809Y-104993452D01*
X123289285Y-104993452D01*
X124122619Y-104993452D02*
X125670238Y-104993452D01*
X124836904Y-105945833D01*
X125194047Y-105945833D01*
X125432142Y-106064880D01*
X125551190Y-106183928D01*
X125670238Y-106422023D01*
X125670238Y-107017261D01*
X125551190Y-107255357D01*
X125432142Y-107374404D01*
X125194047Y-107493452D01*
X124479761Y-107493452D01*
X124241666Y-107374404D01*
X124122619Y-107255357D01*
X102929761Y-107493452D02*
X102929761Y-104993452D01*
X103525000Y-104993452D01*
X103882142Y-105112500D01*
X104120238Y-105350595D01*
X104239285Y-105588690D01*
X104358333Y-106064880D01*
X104358333Y-106422023D01*
X104239285Y-106898214D01*
X104120238Y-107136309D01*
X103882142Y-107374404D01*
X103525000Y-107493452D01*
X102929761Y-107493452D01*
X105191666Y-104993452D02*
X106739285Y-104993452D01*
X105905952Y-105945833D01*
X106263095Y-105945833D01*
X106501190Y-106064880D01*
X106620238Y-106183928D01*
X106739285Y-106422023D01*
X106739285Y-107017261D01*
X106620238Y-107255357D01*
X106501190Y-107374404D01*
X106263095Y-107493452D01*
X105548809Y-107493452D01*
X105310714Y-107374404D01*
X105191666Y-107255357D01*
X85308333Y-107255357D02*
X85189285Y-107374404D01*
X84832142Y-107493452D01*
X84594047Y-107493452D01*
X84236904Y-107374404D01*
X83998809Y-107136309D01*
X83879761Y-106898214D01*
X83760714Y-106422023D01*
X83760714Y-106064880D01*
X83879761Y-105588690D01*
X83998809Y-105350595D01*
X84236904Y-105112500D01*
X84594047Y-104993452D01*
X84832142Y-104993452D01*
X85189285Y-105112500D01*
X85308333Y-105231547D01*
X86141666Y-104993452D02*
X87689285Y-104993452D01*
X86855952Y-105945833D01*
X87213095Y-105945833D01*
X87451190Y-106064880D01*
X87570238Y-106183928D01*
X87689285Y-106422023D01*
X87689285Y-107017261D01*
X87570238Y-107255357D01*
X87451190Y-107374404D01*
X87213095Y-107493452D01*
X86498809Y-107493452D01*
X86260714Y-107374404D01*
X86141666Y-107255357D01*
X65663095Y-106183928D02*
X66020238Y-106302976D01*
X66139285Y-106422023D01*
X66258333Y-106660119D01*
X66258333Y-107017261D01*
X66139285Y-107255357D01*
X66020238Y-107374404D01*
X65782142Y-107493452D01*
X64829761Y-107493452D01*
X64829761Y-104993452D01*
X65663095Y-104993452D01*
X65901190Y-105112500D01*
X66020238Y-105231547D01*
X66139285Y-105469642D01*
X66139285Y-105707738D01*
X66020238Y-105945833D01*
X65901190Y-106064880D01*
X65663095Y-106183928D01*
X64829761Y-106183928D01*
X67091666Y-104993452D02*
X68639285Y-104993452D01*
X67805952Y-105945833D01*
X68163095Y-105945833D01*
X68401190Y-106064880D01*
X68520238Y-106183928D01*
X68639285Y-106422023D01*
X68639285Y-107017261D01*
X68520238Y-107255357D01*
X68401190Y-107374404D01*
X68163095Y-107493452D01*
X67448809Y-107493452D01*
X67210714Y-107374404D01*
X67091666Y-107255357D01*
X45839285Y-106779166D02*
X47029761Y-106779166D01*
X45601190Y-107493452D02*
X46434523Y-104993452D01*
X47267857Y-107493452D01*
X47863095Y-104993452D02*
X49410714Y-104993452D01*
X48577380Y-105945833D01*
X48934523Y-105945833D01*
X49172619Y-106064880D01*
X49291666Y-106183928D01*
X49410714Y-106422023D01*
X49410714Y-107017261D01*
X49291666Y-107255357D01*
X49172619Y-107374404D01*
X48934523Y-107493452D01*
X48220238Y-107493452D01*
X47982142Y-107374404D01*
X47863095Y-107255357D01*
X122098809Y-82371428D02*
X122932142Y-82371428D01*
X123289285Y-83680952D02*
X122098809Y-83680952D01*
X122098809Y-81180952D01*
X123289285Y-81180952D01*
X124241666Y-81419047D02*
X124360714Y-81300000D01*
X124598809Y-81180952D01*
X125194047Y-81180952D01*
X125432142Y-81300000D01*
X125551190Y-81419047D01*
X125670238Y-81657142D01*
X125670238Y-81895238D01*
X125551190Y-82252380D01*
X124122619Y-83680952D01*
X125670238Y-83680952D01*
X102929761Y-83680952D02*
X102929761Y-81180952D01*
X103525000Y-81180952D01*
X103882142Y-81300000D01*
X104120238Y-81538095D01*
X104239285Y-81776190D01*
X104358333Y-82252380D01*
X104358333Y-82609523D01*
X104239285Y-83085714D01*
X104120238Y-83323809D01*
X103882142Y-83561904D01*
X103525000Y-83680952D01*
X102929761Y-83680952D01*
X105310714Y-81419047D02*
X105429761Y-81300000D01*
X105667857Y-81180952D01*
X106263095Y-81180952D01*
X106501190Y-81300000D01*
X106620238Y-81419047D01*
X106739285Y-81657142D01*
X106739285Y-81895238D01*
X106620238Y-82252380D01*
X105191666Y-83680952D01*
X106739285Y-83680952D01*
X85308333Y-83442857D02*
X85189285Y-83561904D01*
X84832142Y-83680952D01*
X84594047Y-83680952D01*
X84236904Y-83561904D01*
X83998809Y-83323809D01*
X83879761Y-83085714D01*
X83760714Y-82609523D01*
X83760714Y-82252380D01*
X83879761Y-81776190D01*
X83998809Y-81538095D01*
X84236904Y-81300000D01*
X84594047Y-81180952D01*
X84832142Y-81180952D01*
X85189285Y-81300000D01*
X85308333Y-81419047D01*
X86260714Y-81419047D02*
X86379761Y-81300000D01*
X86617857Y-81180952D01*
X87213095Y-81180952D01*
X87451190Y-81300000D01*
X87570238Y-81419047D01*
X87689285Y-81657142D01*
X87689285Y-81895238D01*
X87570238Y-82252380D01*
X86141666Y-83680952D01*
X87689285Y-83680952D01*
X65663095Y-82371428D02*
X66020238Y-82490476D01*
X66139285Y-82609523D01*
X66258333Y-82847619D01*
X66258333Y-83204761D01*
X66139285Y-83442857D01*
X66020238Y-83561904D01*
X65782142Y-83680952D01*
X64829761Y-83680952D01*
X64829761Y-81180952D01*
X65663095Y-81180952D01*
X65901190Y-81300000D01*
X66020238Y-81419047D01*
X66139285Y-81657142D01*
X66139285Y-81895238D01*
X66020238Y-82133333D01*
X65901190Y-82252380D01*
X65663095Y-82371428D01*
X64829761Y-82371428D01*
X67210714Y-81419047D02*
X67329761Y-81300000D01*
X67567857Y-81180952D01*
X68163095Y-81180952D01*
X68401190Y-81300000D01*
X68520238Y-81419047D01*
X68639285Y-81657142D01*
X68639285Y-81895238D01*
X68520238Y-82252380D01*
X67091666Y-83680952D01*
X68639285Y-83680952D01*
X45839285Y-82966666D02*
X47029761Y-82966666D01*
X45601190Y-83680952D02*
X46434523Y-81180952D01*
X47267857Y-83680952D01*
X47982142Y-81419047D02*
X48101190Y-81300000D01*
X48339285Y-81180952D01*
X48934523Y-81180952D01*
X49172619Y-81300000D01*
X49291666Y-81419047D01*
X49410714Y-81657142D01*
X49410714Y-81895238D01*
X49291666Y-82252380D01*
X47863095Y-83680952D01*
X49410714Y-83680952D01*
X122098809Y-58558928D02*
X122932142Y-58558928D01*
X123289285Y-59868452D02*
X122098809Y-59868452D01*
X122098809Y-57368452D01*
X123289285Y-57368452D01*
X125670238Y-59868452D02*
X124241666Y-59868452D01*
X124955952Y-59868452D02*
X124955952Y-57368452D01*
X124717857Y-57725595D01*
X124479761Y-57963690D01*
X124241666Y-58082738D01*
X102929761Y-59868452D02*
X102929761Y-57368452D01*
X103525000Y-57368452D01*
X103882142Y-57487500D01*
X104120238Y-57725595D01*
X104239285Y-57963690D01*
X104358333Y-58439880D01*
X104358333Y-58797023D01*
X104239285Y-59273214D01*
X104120238Y-59511309D01*
X103882142Y-59749404D01*
X103525000Y-59868452D01*
X102929761Y-59868452D01*
X106739285Y-59868452D02*
X105310714Y-59868452D01*
X106025000Y-59868452D02*
X106025000Y-57368452D01*
X105786904Y-57725595D01*
X105548809Y-57963690D01*
X105310714Y-58082738D01*
X85308333Y-59630357D02*
X85189285Y-59749404D01*
X84832142Y-59868452D01*
X84594047Y-59868452D01*
X84236904Y-59749404D01*
X83998809Y-59511309D01*
X83879761Y-59273214D01*
X83760714Y-58797023D01*
X83760714Y-58439880D01*
X83879761Y-57963690D01*
X83998809Y-57725595D01*
X84236904Y-57487500D01*
X84594047Y-57368452D01*
X84832142Y-57368452D01*
X85189285Y-57487500D01*
X85308333Y-57606547D01*
X87689285Y-59868452D02*
X86260714Y-59868452D01*
X86975000Y-59868452D02*
X86975000Y-57368452D01*
X86736904Y-57725595D01*
X86498809Y-57963690D01*
X86260714Y-58082738D01*
X65663095Y-58558928D02*
X66020238Y-58677976D01*
X66139285Y-58797023D01*
X66258333Y-59035119D01*
X66258333Y-59392261D01*
X66139285Y-59630357D01*
X66020238Y-59749404D01*
X65782142Y-59868452D01*
X64829761Y-59868452D01*
X64829761Y-57368452D01*
X65663095Y-57368452D01*
X65901190Y-57487500D01*
X66020238Y-57606547D01*
X66139285Y-57844642D01*
X66139285Y-58082738D01*
X66020238Y-58320833D01*
X65901190Y-58439880D01*
X65663095Y-58558928D01*
X64829761Y-58558928D01*
X68639285Y-59868452D02*
X67210714Y-59868452D01*
X67925000Y-59868452D02*
X67925000Y-57368452D01*
X67686904Y-57725595D01*
X67448809Y-57963690D01*
X67210714Y-58082738D01*
X45839285Y-59154166D02*
X47029761Y-59154166D01*
X45601190Y-59868452D02*
X46434523Y-57368452D01*
X47267857Y-59868452D01*
X49410714Y-59868452D02*
X47982142Y-59868452D01*
X48696428Y-59868452D02*
X48696428Y-57368452D01*
X48458333Y-57725595D01*
X48220238Y-57963690D01*
X47982142Y-58082738D01*
D11*
G36*
X132070945Y-108891254D02*
X132419093Y-108960504D01*
X132828749Y-109130189D01*
X133197429Y-109376534D01*
X133510966Y-109690071D01*
X133757311Y-110058751D01*
X133926996Y-110468407D01*
X133977836Y-110724000D01*
X134013500Y-110903294D01*
X134013500Y-111346706D01*
X133996246Y-111433445D01*
X133926996Y-111781593D01*
X133757311Y-112191249D01*
X133510966Y-112559929D01*
X133197429Y-112873466D01*
X132828749Y-113119811D01*
X132419093Y-113289496D01*
X132070945Y-113358746D01*
X131984206Y-113376000D01*
X131540794Y-113376000D01*
X131454055Y-113358746D01*
X131105907Y-113289496D01*
X130696251Y-113119811D01*
X130327571Y-112873466D01*
X130014034Y-112559929D01*
X129767689Y-112191249D01*
X129598004Y-111781593D01*
X129528754Y-111433445D01*
X129511500Y-111346706D01*
X129511500Y-110903294D01*
X129547164Y-110724000D01*
X129598004Y-110468407D01*
X129767689Y-110058751D01*
X130014034Y-109690071D01*
X130327571Y-109376534D01*
X130696251Y-109130189D01*
X131105907Y-108960504D01*
X131454055Y-108891254D01*
X131540794Y-108874000D01*
X131984206Y-108874000D01*
X132070945Y-108891254D01*
X132070945Y-108891254D01*
G37*
G36*
X39995945Y-108891254D02*
X40344093Y-108960504D01*
X40753749Y-109130189D01*
X41122429Y-109376534D01*
X41435966Y-109690071D01*
X41682311Y-110058751D01*
X41851996Y-110468407D01*
X41902836Y-110724000D01*
X41938500Y-110903294D01*
X41938500Y-111346706D01*
X41921246Y-111433445D01*
X41851996Y-111781593D01*
X41682311Y-112191249D01*
X41435966Y-112559929D01*
X41122429Y-112873466D01*
X40753749Y-113119811D01*
X40344093Y-113289496D01*
X39995945Y-113358746D01*
X39909206Y-113376000D01*
X39465794Y-113376000D01*
X39379055Y-113358746D01*
X39030907Y-113289496D01*
X38621251Y-113119811D01*
X38252571Y-112873466D01*
X37939034Y-112559929D01*
X37692689Y-112191249D01*
X37523004Y-111781593D01*
X37453754Y-111433445D01*
X37436500Y-111346706D01*
X37436500Y-110903294D01*
X37472164Y-110724000D01*
X37523004Y-110468407D01*
X37692689Y-110058751D01*
X37939034Y-109690071D01*
X38252571Y-109376534D01*
X38621251Y-109130189D01*
X39030907Y-108960504D01*
X39379055Y-108891254D01*
X39465794Y-108874000D01*
X39909206Y-108874000D01*
X39995945Y-108891254D01*
X39995945Y-108891254D01*
G37*
G36*
X131108006Y-87267706D02*
X131274973Y-87318355D01*
X131428845Y-87400602D01*
X131563714Y-87511286D01*
X131674398Y-87646155D01*
X131756645Y-87800027D01*
X131807294Y-87966994D01*
X131825000Y-88146765D01*
X131825000Y-102353235D01*
X131807294Y-102533006D01*
X131756645Y-102699973D01*
X131674398Y-102853845D01*
X131563714Y-102988714D01*
X131428845Y-103099398D01*
X131274973Y-103181645D01*
X131108006Y-103232294D01*
X130928235Y-103250000D01*
X116721765Y-103250000D01*
X116541994Y-103232294D01*
X116375027Y-103181645D01*
X116221155Y-103099398D01*
X116086286Y-102988714D01*
X115975602Y-102853845D01*
X115893355Y-102699973D01*
X115842706Y-102533006D01*
X115825000Y-102353235D01*
X115825000Y-88146765D01*
X115842706Y-87966994D01*
X115893355Y-87800027D01*
X115975602Y-87646155D01*
X116086286Y-87511286D01*
X116221155Y-87400602D01*
X116375027Y-87318355D01*
X116541994Y-87267706D01*
X116721765Y-87250000D01*
X130928235Y-87250000D01*
X131108006Y-87267706D01*
X131108006Y-87267706D01*
G37*
G36*
X54908006Y-87267706D02*
X55074973Y-87318355D01*
X55228845Y-87400602D01*
X55363714Y-87511286D01*
X55474398Y-87646155D01*
X55556645Y-87800027D01*
X55607294Y-87966994D01*
X55625000Y-88146765D01*
X55625000Y-102353235D01*
X55607294Y-102533006D01*
X55556645Y-102699973D01*
X55474398Y-102853845D01*
X55363714Y-102988714D01*
X55228845Y-103099398D01*
X55074973Y-103181645D01*
X54908006Y-103232294D01*
X54728235Y-103250000D01*
X40521765Y-103250000D01*
X40341994Y-103232294D01*
X40175027Y-103181645D01*
X40021155Y-103099398D01*
X39886286Y-102988714D01*
X39775602Y-102853845D01*
X39693355Y-102699973D01*
X39642706Y-102533006D01*
X39625000Y-102353235D01*
X39625000Y-88146765D01*
X39642706Y-87966994D01*
X39693355Y-87800027D01*
X39775602Y-87646155D01*
X39886286Y-87511286D01*
X40021155Y-87400602D01*
X40175027Y-87318355D01*
X40341994Y-87267706D01*
X40521765Y-87250000D01*
X54728235Y-87250000D01*
X54908006Y-87267706D01*
X54908006Y-87267706D01*
G37*
G36*
X73958006Y-87267706D02*
X74124973Y-87318355D01*
X74278845Y-87400602D01*
X74413714Y-87511286D01*
X74524398Y-87646155D01*
X74606645Y-87800027D01*
X74657294Y-87966994D01*
X74675000Y-88146765D01*
X74675000Y-102353235D01*
X74657294Y-102533006D01*
X74606645Y-102699973D01*
X74524398Y-102853845D01*
X74413714Y-102988714D01*
X74278845Y-103099398D01*
X74124973Y-103181645D01*
X73958006Y-103232294D01*
X73778235Y-103250000D01*
X59571765Y-103250000D01*
X59391994Y-103232294D01*
X59225027Y-103181645D01*
X59071155Y-103099398D01*
X58936286Y-102988714D01*
X58825602Y-102853845D01*
X58743355Y-102699973D01*
X58692706Y-102533006D01*
X58675000Y-102353235D01*
X58675000Y-88146765D01*
X58692706Y-87966994D01*
X58743355Y-87800027D01*
X58825602Y-87646155D01*
X58936286Y-87511286D01*
X59071155Y-87400602D01*
X59225027Y-87318355D01*
X59391994Y-87267706D01*
X59571765Y-87250000D01*
X73778235Y-87250000D01*
X73958006Y-87267706D01*
X73958006Y-87267706D01*
G37*
G36*
X93008006Y-87267706D02*
X93174973Y-87318355D01*
X93328845Y-87400602D01*
X93463714Y-87511286D01*
X93574398Y-87646155D01*
X93656645Y-87800027D01*
X93707294Y-87966994D01*
X93725000Y-88146765D01*
X93725000Y-102353235D01*
X93707294Y-102533006D01*
X93656645Y-102699973D01*
X93574398Y-102853845D01*
X93463714Y-102988714D01*
X93328845Y-103099398D01*
X93174973Y-103181645D01*
X93008006Y-103232294D01*
X92828235Y-103250000D01*
X78621765Y-103250000D01*
X78441994Y-103232294D01*
X78275027Y-103181645D01*
X78121155Y-103099398D01*
X77986286Y-102988714D01*
X77875602Y-102853845D01*
X77793355Y-102699973D01*
X77742706Y-102533006D01*
X77725000Y-102353235D01*
X77725000Y-88146765D01*
X77742706Y-87966994D01*
X77793355Y-87800027D01*
X77875602Y-87646155D01*
X77986286Y-87511286D01*
X78121155Y-87400602D01*
X78275027Y-87318355D01*
X78441994Y-87267706D01*
X78621765Y-87250000D01*
X92828235Y-87250000D01*
X93008006Y-87267706D01*
X93008006Y-87267706D01*
G37*
G36*
X112058006Y-87267706D02*
X112224973Y-87318355D01*
X112378845Y-87400602D01*
X112513714Y-87511286D01*
X112624398Y-87646155D01*
X112706645Y-87800027D01*
X112757294Y-87966994D01*
X112775000Y-88146765D01*
X112775000Y-102353235D01*
X112757294Y-102533006D01*
X112706645Y-102699973D01*
X112624398Y-102853845D01*
X112513714Y-102988714D01*
X112378845Y-103099398D01*
X112224973Y-103181645D01*
X112058006Y-103232294D01*
X111878235Y-103250000D01*
X97671765Y-103250000D01*
X97491994Y-103232294D01*
X97325027Y-103181645D01*
X97171155Y-103099398D01*
X97036286Y-102988714D01*
X96925602Y-102853845D01*
X96843355Y-102699973D01*
X96792706Y-102533006D01*
X96775000Y-102353235D01*
X96775000Y-88146765D01*
X96792706Y-87966994D01*
X96843355Y-87800027D01*
X96925602Y-87646155D01*
X97036286Y-87511286D01*
X97171155Y-87400602D01*
X97325027Y-87318355D01*
X97491994Y-87267706D01*
X97671765Y-87250000D01*
X111878235Y-87250000D01*
X112058006Y-87267706D01*
X112058006Y-87267706D01*
G37*
G36*
X93008006Y-63455206D02*
X93174973Y-63505855D01*
X93328845Y-63588102D01*
X93463714Y-63698786D01*
X93574398Y-63833655D01*
X93656645Y-63987527D01*
X93707294Y-64154494D01*
X93725000Y-64334265D01*
X93725000Y-78540735D01*
X93707294Y-78720506D01*
X93656645Y-78887473D01*
X93574398Y-79041345D01*
X93463714Y-79176214D01*
X93328845Y-79286898D01*
X93174973Y-79369145D01*
X93008006Y-79419794D01*
X92828235Y-79437500D01*
X78621765Y-79437500D01*
X78441994Y-79419794D01*
X78275027Y-79369145D01*
X78121155Y-79286898D01*
X77986286Y-79176214D01*
X77875602Y-79041345D01*
X77793355Y-78887473D01*
X77742706Y-78720506D01*
X77725000Y-78540735D01*
X77725000Y-64334265D01*
X77742706Y-64154494D01*
X77793355Y-63987527D01*
X77875602Y-63833655D01*
X77986286Y-63698786D01*
X78121155Y-63588102D01*
X78275027Y-63505855D01*
X78441994Y-63455206D01*
X78621765Y-63437500D01*
X92828235Y-63437500D01*
X93008006Y-63455206D01*
X93008006Y-63455206D01*
G37*
G36*
X131108006Y-63455206D02*
X131274973Y-63505855D01*
X131428845Y-63588102D01*
X131563714Y-63698786D01*
X131674398Y-63833655D01*
X131756645Y-63987527D01*
X131807294Y-64154494D01*
X131825000Y-64334265D01*
X131825000Y-78540735D01*
X131807294Y-78720506D01*
X131756645Y-78887473D01*
X131674398Y-79041345D01*
X131563714Y-79176214D01*
X131428845Y-79286898D01*
X131274973Y-79369145D01*
X131108006Y-79419794D01*
X130928235Y-79437500D01*
X116721765Y-79437500D01*
X116541994Y-79419794D01*
X116375027Y-79369145D01*
X116221155Y-79286898D01*
X116086286Y-79176214D01*
X115975602Y-79041345D01*
X115893355Y-78887473D01*
X115842706Y-78720506D01*
X115825000Y-78540735D01*
X115825000Y-64334265D01*
X115842706Y-64154494D01*
X115893355Y-63987527D01*
X115975602Y-63833655D01*
X116086286Y-63698786D01*
X116221155Y-63588102D01*
X116375027Y-63505855D01*
X116541994Y-63455206D01*
X116721765Y-63437500D01*
X130928235Y-63437500D01*
X131108006Y-63455206D01*
X131108006Y-63455206D01*
G37*
G36*
X112058006Y-63455206D02*
X112224973Y-63505855D01*
X112378845Y-63588102D01*
X112513714Y-63698786D01*
X112624398Y-63833655D01*
X112706645Y-63987527D01*
X112757294Y-64154494D01*
X112775000Y-64334265D01*
X112775000Y-78540735D01*
X112757294Y-78720506D01*
X112706645Y-78887473D01*
X112624398Y-79041345D01*
X112513714Y-79176214D01*
X112378845Y-79286898D01*
X112224973Y-79369145D01*
X112058006Y-79419794D01*
X111878235Y-79437500D01*
X97671765Y-79437500D01*
X97491994Y-79419794D01*
X97325027Y-79369145D01*
X97171155Y-79286898D01*
X97036286Y-79176214D01*
X96925602Y-79041345D01*
X96843355Y-78887473D01*
X96792706Y-78720506D01*
X96775000Y-78540735D01*
X96775000Y-64334265D01*
X96792706Y-64154494D01*
X96843355Y-63987527D01*
X96925602Y-63833655D01*
X97036286Y-63698786D01*
X97171155Y-63588102D01*
X97325027Y-63505855D01*
X97491994Y-63455206D01*
X97671765Y-63437500D01*
X111878235Y-63437500D01*
X112058006Y-63455206D01*
X112058006Y-63455206D01*
G37*
G36*
X73958006Y-63455206D02*
X74124973Y-63505855D01*
X74278845Y-63588102D01*
X74413714Y-63698786D01*
X74524398Y-63833655D01*
X74606645Y-63987527D01*
X74657294Y-64154494D01*
X74675000Y-64334265D01*
X74675000Y-78540735D01*
X74657294Y-78720506D01*
X74606645Y-78887473D01*
X74524398Y-79041345D01*
X74413714Y-79176214D01*
X74278845Y-79286898D01*
X74124973Y-79369145D01*
X73958006Y-79419794D01*
X73778235Y-79437500D01*
X59571765Y-79437500D01*
X59391994Y-79419794D01*
X59225027Y-79369145D01*
X59071155Y-79286898D01*
X58936286Y-79176214D01*
X58825602Y-79041345D01*
X58743355Y-78887473D01*
X58692706Y-78720506D01*
X58675000Y-78540735D01*
X58675000Y-64334265D01*
X58692706Y-64154494D01*
X58743355Y-63987527D01*
X58825602Y-63833655D01*
X58936286Y-63698786D01*
X59071155Y-63588102D01*
X59225027Y-63505855D01*
X59391994Y-63455206D01*
X59571765Y-63437500D01*
X73778235Y-63437500D01*
X73958006Y-63455206D01*
X73958006Y-63455206D01*
G37*
G36*
X54908006Y-63455206D02*
X55074973Y-63505855D01*
X55228845Y-63588102D01*
X55363714Y-63698786D01*
X55474398Y-63833655D01*
X55556645Y-63987527D01*
X55607294Y-64154494D01*
X55625000Y-64334265D01*
X55625000Y-78540735D01*
X55607294Y-78720506D01*
X55556645Y-78887473D01*
X55474398Y-79041345D01*
X55363714Y-79176214D01*
X55228845Y-79286898D01*
X55074973Y-79369145D01*
X54908006Y-79419794D01*
X54728235Y-79437500D01*
X40521765Y-79437500D01*
X40341994Y-79419794D01*
X40175027Y-79369145D01*
X40021155Y-79286898D01*
X39886286Y-79176214D01*
X39775602Y-79041345D01*
X39693355Y-78887473D01*
X39642706Y-78720506D01*
X39625000Y-78540735D01*
X39625000Y-64334265D01*
X39642706Y-64154494D01*
X39693355Y-63987527D01*
X39775602Y-63833655D01*
X39886286Y-63698786D01*
X40021155Y-63588102D01*
X40175027Y-63505855D01*
X40341994Y-63455206D01*
X40521765Y-63437500D01*
X54728235Y-63437500D01*
X54908006Y-63455206D01*
X54908006Y-63455206D01*
G37*
G36*
X54908006Y-39642706D02*
X55074973Y-39693355D01*
X55228845Y-39775602D01*
X55363714Y-39886286D01*
X55474398Y-40021155D01*
X55556645Y-40175027D01*
X55607294Y-40341994D01*
X55625000Y-40521765D01*
X55625000Y-54728235D01*
X55607294Y-54908006D01*
X55556645Y-55074973D01*
X55474398Y-55228845D01*
X55363714Y-55363714D01*
X55228845Y-55474398D01*
X55074973Y-55556645D01*
X54908006Y-55607294D01*
X54728235Y-55625000D01*
X40521765Y-55625000D01*
X40341994Y-55607294D01*
X40175027Y-55556645D01*
X40021155Y-55474398D01*
X39886286Y-55363714D01*
X39775602Y-55228845D01*
X39693355Y-55074973D01*
X39642706Y-54908006D01*
X39625000Y-54728235D01*
X39625000Y-40521765D01*
X39642706Y-40341994D01*
X39693355Y-40175027D01*
X39775602Y-40021155D01*
X39886286Y-39886286D01*
X40021155Y-39775602D01*
X40175027Y-39693355D01*
X40341994Y-39642706D01*
X40521765Y-39625000D01*
X54728235Y-39625000D01*
X54908006Y-39642706D01*
X54908006Y-39642706D01*
G37*
G36*
X131108006Y-39642706D02*
X131274973Y-39693355D01*
X131428845Y-39775602D01*
X131563714Y-39886286D01*
X131674398Y-40021155D01*
X131756645Y-40175027D01*
X131807294Y-40341994D01*
X131825000Y-40521765D01*
X131825000Y-54728235D01*
X131807294Y-54908006D01*
X131756645Y-55074973D01*
X131674398Y-55228845D01*
X131563714Y-55363714D01*
X131428845Y-55474398D01*
X131274973Y-55556645D01*
X131108006Y-55607294D01*
X130928235Y-55625000D01*
X116721765Y-55625000D01*
X116541994Y-55607294D01*
X116375027Y-55556645D01*
X116221155Y-55474398D01*
X116086286Y-55363714D01*
X115975602Y-55228845D01*
X115893355Y-55074973D01*
X115842706Y-54908006D01*
X115825000Y-54728235D01*
X115825000Y-40521765D01*
X115842706Y-40341994D01*
X115893355Y-40175027D01*
X115975602Y-40021155D01*
X116086286Y-39886286D01*
X116221155Y-39775602D01*
X116375027Y-39693355D01*
X116541994Y-39642706D01*
X116721765Y-39625000D01*
X130928235Y-39625000D01*
X131108006Y-39642706D01*
X131108006Y-39642706D01*
G37*
G36*
X112058006Y-39642706D02*
X112224973Y-39693355D01*
X112378845Y-39775602D01*
X112513714Y-39886286D01*
X112624398Y-40021155D01*
X112706645Y-40175027D01*
X112757294Y-40341994D01*
X112775000Y-40521765D01*
X112775000Y-54728235D01*
X112757294Y-54908006D01*
X112706645Y-55074973D01*
X112624398Y-55228845D01*
X112513714Y-55363714D01*
X112378845Y-55474398D01*
X112224973Y-55556645D01*
X112058006Y-55607294D01*
X111878235Y-55625000D01*
X97671765Y-55625000D01*
X97491994Y-55607294D01*
X97325027Y-55556645D01*
X97171155Y-55474398D01*
X97036286Y-55363714D01*
X96925602Y-55228845D01*
X96843355Y-55074973D01*
X96792706Y-54908006D01*
X96775000Y-54728235D01*
X96775000Y-40521765D01*
X96792706Y-40341994D01*
X96843355Y-40175027D01*
X96925602Y-40021155D01*
X97036286Y-39886286D01*
X97171155Y-39775602D01*
X97325027Y-39693355D01*
X97491994Y-39642706D01*
X97671765Y-39625000D01*
X111878235Y-39625000D01*
X112058006Y-39642706D01*
X112058006Y-39642706D01*
G37*
G36*
X93008006Y-39642706D02*
X93174973Y-39693355D01*
X93328845Y-39775602D01*
X93463714Y-39886286D01*
X93574398Y-40021155D01*
X93656645Y-40175027D01*
X93707294Y-40341994D01*
X93725000Y-40521765D01*
X93725000Y-54728235D01*
X93707294Y-54908006D01*
X93656645Y-55074973D01*
X93574398Y-55228845D01*
X93463714Y-55363714D01*
X93328845Y-55474398D01*
X93174973Y-55556645D01*
X93008006Y-55607294D01*
X92828235Y-55625000D01*
X78621765Y-55625000D01*
X78441994Y-55607294D01*
X78275027Y-55556645D01*
X78121155Y-55474398D01*
X77986286Y-55363714D01*
X77875602Y-55228845D01*
X77793355Y-55074973D01*
X77742706Y-54908006D01*
X77725000Y-54728235D01*
X77725000Y-40521765D01*
X77742706Y-40341994D01*
X77793355Y-40175027D01*
X77875602Y-40021155D01*
X77986286Y-39886286D01*
X78121155Y-39775602D01*
X78275027Y-39693355D01*
X78441994Y-39642706D01*
X78621765Y-39625000D01*
X92828235Y-39625000D01*
X93008006Y-39642706D01*
X93008006Y-39642706D01*
G37*
G36*
X73958006Y-39642706D02*
X74124973Y-39693355D01*
X74278845Y-39775602D01*
X74413714Y-39886286D01*
X74524398Y-40021155D01*
X74606645Y-40175027D01*
X74657294Y-40341994D01*
X74675000Y-40521765D01*
X74675000Y-54728235D01*
X74657294Y-54908006D01*
X74606645Y-55074973D01*
X74524398Y-55228845D01*
X74413714Y-55363714D01*
X74278845Y-55474398D01*
X74124973Y-55556645D01*
X73958006Y-55607294D01*
X73778235Y-55625000D01*
X59571765Y-55625000D01*
X59391994Y-55607294D01*
X59225027Y-55556645D01*
X59071155Y-55474398D01*
X58936286Y-55363714D01*
X58825602Y-55228845D01*
X58743355Y-55074973D01*
X58692706Y-54908006D01*
X58675000Y-54728235D01*
X58675000Y-40521765D01*
X58692706Y-40341994D01*
X58743355Y-40175027D01*
X58825602Y-40021155D01*
X58936286Y-39886286D01*
X59071155Y-39775602D01*
X59225027Y-39693355D01*
X59391994Y-39642706D01*
X59571765Y-39625000D01*
X73778235Y-39625000D01*
X73958006Y-39642706D01*
X73958006Y-39642706D01*
G37*
G36*
X39995945Y-34278754D02*
X40344093Y-34348004D01*
X40753749Y-34517689D01*
X41122429Y-34764034D01*
X41435966Y-35077571D01*
X41682311Y-35446251D01*
X41851996Y-35855907D01*
X41902836Y-36111500D01*
X41938500Y-36290794D01*
X41938500Y-36734206D01*
X41921246Y-36820945D01*
X41851996Y-37169093D01*
X41682311Y-37578749D01*
X41435966Y-37947429D01*
X41122429Y-38260966D01*
X40753749Y-38507311D01*
X40344093Y-38676996D01*
X39995945Y-38746246D01*
X39909206Y-38763500D01*
X39465794Y-38763500D01*
X39379055Y-38746246D01*
X39030907Y-38676996D01*
X38621251Y-38507311D01*
X38252571Y-38260966D01*
X37939034Y-37947429D01*
X37692689Y-37578749D01*
X37523004Y-37169093D01*
X37453754Y-36820945D01*
X37436500Y-36734206D01*
X37436500Y-36290794D01*
X37472164Y-36111500D01*
X37523004Y-35855907D01*
X37692689Y-35446251D01*
X37939034Y-35077571D01*
X38252571Y-34764034D01*
X38621251Y-34517689D01*
X39030907Y-34348004D01*
X39379055Y-34278754D01*
X39465794Y-34261500D01*
X39909206Y-34261500D01*
X39995945Y-34278754D01*
X39995945Y-34278754D01*
G37*
G36*
X132070945Y-34278754D02*
X132419093Y-34348004D01*
X132828749Y-34517689D01*
X133197429Y-34764034D01*
X133510966Y-35077571D01*
X133757311Y-35446251D01*
X133926996Y-35855907D01*
X133977836Y-36111500D01*
X134013500Y-36290794D01*
X134013500Y-36734206D01*
X133996246Y-36820945D01*
X133926996Y-37169093D01*
X133757311Y-37578749D01*
X133510966Y-37947429D01*
X133197429Y-38260966D01*
X132828749Y-38507311D01*
X132419093Y-38676996D01*
X132070945Y-38746246D01*
X131984206Y-38763500D01*
X131540794Y-38763500D01*
X131454055Y-38746246D01*
X131105907Y-38676996D01*
X130696251Y-38507311D01*
X130327571Y-38260966D01*
X130014034Y-37947429D01*
X129767689Y-37578749D01*
X129598004Y-37169093D01*
X129528754Y-36820945D01*
X129511500Y-36734206D01*
X129511500Y-36290794D01*
X129547164Y-36111500D01*
X129598004Y-35855907D01*
X129767689Y-35446251D01*
X130014034Y-35077571D01*
X130327571Y-34764034D01*
X130696251Y-34517689D01*
X131105907Y-34348004D01*
X131454055Y-34278754D01*
X131540794Y-34261500D01*
X131984206Y-34261500D01*
X132070945Y-34278754D01*
X132070945Y-34278754D01*
G37*
M02*
